<?xml version="1.0" encoding="utf-8"?>
<!-- Generator: Adobe Illustrator 24.0.0, SVG Export Plug-In . SVG Version: 6.00 Build 0)  -->
<svg version="1.1" id="Camada_1" xmlns="http://www.w3.org/2000/svg" xmlns:xlink="http://www.w3.org/1999/xlink" x="0px" y="0px"
	 viewBox="0 0 869.5 670.8" style="enable-background:new 0 0 869.5 670.8;" xml:space="preserve">
<style type="text/css">
	.st0{fill:#666699;}
	.st1{fill:#333366;}
	.st2{fill:#D7D7FF;}
	.st3{fill:#EAE6FF;}
	.st4{fill:#BDC6F9;}
	.st5{fill:#8784EF;}
	.st6{fill:#9AA3F4;}
	.st7{fill:none;stroke:#9AA3F4;stroke-width:1.5;stroke-miterlimit:10;}
	.st8{fill:#4664C6;}
	.st9{fill:#3555D3;}
	.st10{fill:#9999CC;}
	.st11{opacity:0.35;fill:#FFFFFF;enable-background:new    ;}
	.st12{opacity:0.25;}
	.st13{fill:#FCA70C;}
	.st14{fill:#B1AFFD;}
	.st15{opacity:3.900000e-02;enable-background:new    ;}
	.st16{opacity:0.1612;enable-background:new    ;}
	.st17{fill:#D5DBDA;}
	.st18{fill:#EFEFEF;}
	.st19{fill:#EA701A;}
	.st20{fill:#CFCFFF;}
	.st21{opacity:0.55;fill:#EA701A;enable-background:new    ;}
	.st22{opacity:3.900000e-02;fill:#241111;enable-background:new    ;}
	.st23{fill:#FFFFFF;}
	.st24{opacity:0.35;fill:#23C3D8;enable-background:new    ;}
	.st25{opacity:0.35;fill:#385369;enable-background:new    ;}
	.st26{opacity:0.35;fill:#5851BC;enable-background:new    ;}
	.st27{opacity:0.35;fill:#FFB9B0;enable-background:new    ;}
	.st28{fill:#A2A7F4;}
	.st29{fill:#9090F4;}
	.st30{opacity:0.45;}
	.st31{fill:#E2DEFF;}
	.st32{fill:url(#SVGID_1_);}
	.st33{fill:url(#SVGID_2_);}
	.st34{fill:#5851BC;}
	.st35{fill:#24446E;}
	.st36{fill:#A5625D;}
	.st37{opacity:0.35;fill:#7762EF;enable-background:new    ;}
	.st38{fill:#F0890A;}
	.st39{fill:none;stroke:#F0890A;stroke-width:0.75;stroke-linecap:round;stroke-linejoin:round;}
	.st40{fill:#C48883;}
	.st41{fill:#515151;}
	.st42{fill:#B77E7B;}
	.st43{fill:#23C3D8;}
	.st44{fill:#19B0BC;}
	.st45{opacity:0.25;fill:#757575;enable-background:new    ;}
	.st46{fill:#747E88;}
	.st47{fill:#38424D;}
	.st48{opacity:0.45;fill:none;stroke:#FFFFFF;stroke-miterlimit:10;enable-background:new    ;}
	.st49{fill:#FFFFFF;stroke:#FFFFFF;stroke-width:0.9998;stroke-miterlimit:3.999;}
	.st50{fill:#020202;}
	.st51{fill:#262626;}
	.st52{opacity:0.45;fill:#FFFFFF;enable-background:new    ;}
	.st53{fill:#B9B9F8;}
	.st54{opacity:0.45;fill:#A2A7F4;enable-background:new    ;}
	.st55{fill:#FDCDCD;}
	.st56{fill:#303D47;}
	.st57{fill:#F2A181;}
	.st58{fill:#5E5DBB;}
	.st59{fill:#B4B4DB;}
	.st60{fill:#385369;}
	.st61{fill:#191919;}
	.st62{fill:#31475A;}
	.st63{fill:#FFBE9D;}
	.st64{fill:#E8E8E8;}
	.st65{fill:#E9E6FF;}
	.st66{fill:#E0D9FF;}
	.st67{fill:none;stroke:#F2A181;stroke-width:0.25;stroke-miterlimit:10;}
	.st68{fill:#232323;}
	.st69{opacity:0.3;}
	.st70{fill:#3939D3;}
	.st71{fill:#FEFEFE;}
	.st72{fill:url(#SVGID_3_);}
	.st73{fill:#0898E7;}
</style>
<g transform="translate(-313.972 -131.651)">
	<path class="st0" d="M1174.3,530.4c-15-41.9-38.7-54.7-61.3-81.6c-27.5-32.9-46.1-56.7-38.9-99c11.7-69.1,16.7-241.3-166.2-218.8
		c-65.5,8.1-117.3,58.3-155,108.4c-32.1,42.7-89.7,46.4-136.1,56.4c-57,12.2-115.1,30.7-167.9,57.7
		c-108.7,55.7-141.1,135.8-136.7,238.2c1.3,31,5.7,79.7,58,136.7c70.6,77,173.1,87.3,296.5,51.9c28.3-8.1,55-20.8,82.7-30.3
		c28.9-9.9,58.9-16.4,89.3-19.4c70.9-6.9,144.4,5.5,212.4-15.6c36.1-11.3,68.8-31.6,95-58.9C1178.6,622.1,1190.2,574.6,1174.3,530.4
		L1174.3,530.4z"/>
	<path class="st1" d="M372.4,691.1c0,10.1,128.4,18.3,286.8,18.3c158.4,0,286.7-8.2,286.7-18.3c0-10.1-128.4-18.3-286.7-18.3
		C500.7,672.8,372.4,681,372.4,691.1L372.4,691.1z"/>
	<path class="st1" d="M547.3,713.7c0,6.3-32.6,11.5-72.8,11.5s-72.8-5.1-72.8-11.5s32.6-11.5,72.8-11.5S547.3,707.4,547.3,713.7z"/>
	<ellipse class="st1" cx="1031.6" cy="716.1" rx="122.1" ry="9.1"/>
	<path class="st2" d="M401,565.2l-4.7,65.7H459l-4.3-65.8L401,565.2z"/>
	<path class="st3" d="M413.4,571c0.1-1.1,1.1-1.9,2.1-1.8c1-0.2,2,0.5,2.1,1.5c0.2,1-0.5,2-1.5,2.1c-0.2,0-0.4,0-0.6,0
		C414.5,572.9,413.5,572.1,413.4,571z M415.6,569.9c-0.6-0.2-1.3,0.2-1.4,0.8c-0.2,0.6,0.2,1.3,0.8,1.4c0.2,0,0.4,0,0.6,0
		c0.6,0.2,1.3-0.2,1.4-0.8c0.2-0.6-0.2-1.3-0.8-1.4C416,569.8,415.8,569.8,415.6,569.9z"/>
	<path class="st3" d="M434.8,570.9h0.3H434.8c0-0.4,0.2-0.9,0.5-1.2c0.4-0.4,1-0.7,1.6-0.6h0c1.1-0.1,2,0.7,2.1,1.8
		c0,0.5-0.2,1-0.6,1.3c-0.4,0.3-1,0.5-1.5,0.5C435.8,572.8,434.9,572,434.8,570.9L434.8,570.9z M436.9,569.8c-0.4,0-0.8,0.2-1.1,0.4
		c-0.2,0.2-0.3,0.4-0.3,0.7c0.1,0.7,0.8,1.2,1.5,1.1c0.4,0,0.8-0.1,1.1-0.4c0.2-0.2,0.4-0.5,0.4-0.8
		C438.3,570.2,437.6,569.7,436.9,569.8L436.9,569.8z"/>
	<path class="st3" d="M425.6,584.2c0.2,0,0.4,0,0.6,0c3.9-0.1,6.9-1.4,8.9-3.8c3.3-3.9,2.5-9.4,2.5-9.6c-0.1-0.4-0.4-0.6-0.8-0.6
		c0,0,0,0,0,0c-0.4,0.1-0.6,0.4-0.6,0.8c0,0.1,0.7,5.1-2.2,8.5c-1.7,2-4.4,3.1-7.9,3.3c-3.4,0.1-5.9-0.8-7.6-2.7
		c-3.1-3.4-2.3-9-2.3-9.1c0-0.4-0.2-0.7-0.6-0.8c-0.4,0-0.7,0.2-0.8,0.6c0,0.3-0.9,6.3,2.6,10.2
		C419.4,583.1,422.1,584.2,425.6,584.2L425.6,584.2z"/>
	<path class="st4" d="M430.5,583.6l-7.5,48.8l68-0.2l-6.9-48.8L430.5,583.6z"/>
	<path class="st5" d="M405.3,666.1c-7.6,0-13.8,6.2-13.8,13.8s6.2,13.8,13.8,13.8s13.8-6.2,13.8-13.8l0,0
		C419.1,672.3,412.9,666.1,405.3,666.1z M405.3,686.3c-3.5,0-6.4-2.9-6.4-6.4s2.9-6.4,6.4-6.4c3.5,0,6.4,2.9,6.4,6.4
		C411.7,683.4,408.8,686.3,405.3,686.3C405.3,686.3,405.3,686.3,405.3,686.3L405.3,686.3z"/>
	<path class="st6" d="M403,666.1c-7.6,0-13.8,6.2-13.8,13.8s6.2,13.8,13.8,13.8s13.8-6.2,13.8-13.8l0,0
		C416.8,672.3,410.6,666.1,403,666.1z M403,686.3c-3.5,0-6.4-2.9-6.4-6.4s2.9-6.4,6.4-6.4c3.5,0,6.4,2.9,6.4,6.4
		C409.4,683.4,406.6,686.3,403,686.3C403,686.3,403,686.3,403,686.3L403,686.3z"/>
	<path class="st5" d="M483.2,666.1c-7.6,0-13.8,6.2-13.8,13.8s6.2,13.8,13.8,13.8s13.8-6.2,13.8-13.8l0,0
		C497,672.3,490.8,666.1,483.2,666.1z M483.2,686.3c-3.5,0-6.4-2.9-6.4-6.4c0-3.5,2.9-6.4,6.4-6.4c3.5,0,6.4,2.9,6.4,6.4
		C489.7,683.4,486.8,686.3,483.2,686.3C483.3,686.3,483.2,686.3,483.2,686.3L483.2,686.3z"/>
	<path class="st6" d="M481,666.1c-7.6,0-13.8,6.2-13.8,13.8s6.2,13.8,13.8,13.8s13.8-6.2,13.8-13.8l0,0
		C494.8,672.3,488.6,666.1,481,666.1z M481,686.3c-3.5,0-6.4-2.9-6.4-6.4c0-3.5,2.9-6.4,6.4-6.4c3.5,0,6.4,2.9,6.4,6.4
		C487.4,683.4,484.5,686.3,481,686.3C481,686.3,481,686.3,481,686.3L481,686.3z"/>
	<g>
		<path class="st7" d="M587.4,511.2h-41.5c-4.4,0-8.4,2.3-10.7,6l-25.1,40.2"/>
		<path class="st7" d="M398.7,631.3h92.6c4.9,0,9.1-3.6,9.9-8.5l9.6-59.8c0.9-5.5-2.9-10.6-8.3-11.5c-0.5-0.1-1.1-0.1-1.6-0.1H389.1
			c-5.5,0-10,4.5-10,10c0,0.5,0,1.1,0.1,1.6l9.6,59.8C389.6,627.8,393.8,631.3,398.7,631.3z"/>
		<path class="st7" d="M445.1,551.5v79.9"/>
		<path class="st7" d="M506.3,591.4H383.8"/>
		<path class="st7" d="M481.6,551.5l-7.9,79.9"/>
		<path class="st7" d="M410.3,551.5l7.3,79.9"/>
		<path class="st7" d="M499.1,627.7l15,22.3c2.8,4.2,1.7,9.9-2.5,12.7c-1.5,1-3.3,1.6-5.1,1.6H383.8"/>
	</g>
	<g transform="translate(538.579 332.517)">
		<path class="st8" d="M156.1,305.8h127.1V340H156.1V305.8z"/>
		<path class="st9" d="M9.4,0h421.8c5.2,0,9.4,4.2,9.4,9.4v298.2c0,5.2-4.2,9.4-9.4,9.4H9.4c-5.2,0-9.4-4.2-9.4-9.4V9.4
			C0,4.2,4.2,0,9.4,0z"/>
		<path class="st10" d="M18.1,11.6h403.1c3.2,0,5.8,2.6,5.8,5.8v263.5c0,3.2-2.6,5.8-5.8,5.8H18.1c-3.2,0-5.8-2.6-5.8-5.8V17.3
			C12.3,14.1,14.9,11.6,18.1,11.6z"/>
		<path class="st9" d="M108.8,337h221.7c4,0,7.3,3.3,7.3,7.3l0,0v14.2l0,0H101.4l0,0v-14.2C101.4,340.3,104.7,337,108.8,337
			L108.8,337L108.8,337z"/>
		<path class="st11" d="M116.3,30.5h280.1c2.8,0,5,2.2,5,5v185c0,2.8-2.2,5-5,5H116.3c-2.8,0-5-2.2-5-5v-185
			C111.3,32.8,113.6,30.5,116.3,30.5z"/>
		<g transform="translate(111.32 30.55)" class="st12">
			<path class="st13" d="M27.6,142.4h12.6v31.7H27.6L27.6,142.4z"/>
			<path class="st14" d="M56,114.6h12.6v59.6H56L56,114.6z"/>
			<path class="st13" d="M84.5,120.8h12.6v53.4H84.5V120.8z"/>
			<path class="st14" d="M113,90.6h12.6v83.6H113V90.6z"/>
			<path class="st15" d="M56,114.6h5.8v59.6H56V114.6z"/>
			<path class="st15" d="M27.6,142.4h5.8v31.7h-5.8L27.6,142.4z"/>
			<path class="st16" d="M113,90.6h5.8v83.6H113V90.6z"/>
			<path class="st15" d="M84.5,120.8h5.8v53.4h-5.8V120.8z"/>
			<g>
				<path class="st17" d="M132.3,182.9H19.2V62.5h1.7v118.7h111.4V182.9z"/>
				<path class="st17" d="M30.8,127.6l-1.2-1.3l29.6-26.6l27.4,6l29.7-33l1.3,1.2l-30.3,33.8l-27.5-6L30.8,127.6z"/>
				<path class="st17" d="M120,78.7l-8.4-8l10.8-2.9L120,78.7z"/>
			</g>
			<path class="st14" d="M143,140.2h8.7v8.7H143V140.2z"/>
			<path class="st13" d="M143,155.4h8.7v8.7H143V155.4z"/>
			<path class="st18" d="M154.1,159.2h27.5v4.9h-27.5V159.2z"/>
			<path class="st18" d="M154.1,143.9h27.5v4.9h-27.5V143.9z"/>
			<path class="st14" d="M194.1,140.2h8.7v8.7h-8.7V140.2z"/>
			<path class="st13" d="M194.1,155.4h8.7v8.7h-8.7V155.4z"/>
			<path class="st18" d="M205.1,159.2h27.5v4.9h-27.5V159.2z"/>
			<path class="st18" d="M205.1,143.9h27.5v4.9h-27.5V143.9z"/>
			<path class="st14" d="M240,140.2h8.7v8.7H240V140.2z"/>
			<path class="st13" d="M240,155.4h8.7v8.7H240V155.4z"/>
			<g>
				<path class="st18" d="M251.1,159.2h18.1v4.9h-18.1V159.2z"/>
				<path class="st18" d="M251.1,143.9h18.1v4.9h-18.1V143.9z"/>
				<path class="st18" d="M144.7,57.3h124.5v2.3H144.7L144.7,57.3z"/>
				<path class="st18" d="M19.2,29.5h250v5.2h-250L19.2,29.5z"/>
				<path class="st18" d="M144.3,64.3h124.9v2.3H144.3V64.3z"/>
				<path class="st18" d="M144.3,50.2h124.9v2.3H144.3V50.2z"/>
				<path class="st18" d="M144.3,71.4h124.9v2.3H144.3V71.4z"/>
				<path class="st18" d="M144.3,78.4h124.9v2.3H144.3V78.4z"/>
				<path class="st18" d="M144.3,85.4h124.9v2.3H144.3V85.4z"/>
				<path class="st18" d="M144.3,92.5h124.9v2.3H144.3V92.5z"/>
				<path class="st18" d="M144.3,99.5h124.9v2.3H144.3V99.5z"/>
				<path class="st18" d="M144.3,106.6h124.9v2.3H144.3V106.6z"/>
				<path class="st18" d="M159.6,113.6h109.6v2.3H159.6L159.6,113.6z"/>
			</g>
			<path class="st19" d="M277.4,0H12.7C5.7,0,0,5.7,0,12.7v0v11.1h290.1V12.7C290.1,5.7,284.4,0,277.4,0z"/>
			<path class="st20" d="M252.8,12.4c0,2-1.6,3.7-3.7,3.7s-3.7-1.6-3.7-3.7s1.6-3.7,3.7-3.7c0,0,0,0,0,0
				C251.2,8.7,252.8,10.3,252.8,12.4z"/>
			<circle class="st20" cx="264.1" cy="12.4" r="3.7"/>
			<circle class="st20" cx="279" cy="12.4" r="3.7"/>
		</g>
		<path class="st21" d="M39.3,73.7h280.1c2.8,0,5,2.2,5,5v185c0,2.8-2.2,5-5,5H39.3c-2.8,0-5-2.2-5-5v-185
			C34.3,75.9,36.5,73.7,39.3,73.7z"/>
		<path class="st0" d="M45.2,66.1h280.1c2.8,0,5,2.2,5,5v185c0,2.8-2.2,5-5,5H45.2c-2.8,0-5-2.2-5-5v-185
			C40.1,68.3,42.4,66.1,45.2,66.1z"/>
		<path class="st19" d="M67.7,208.5h12.6v31.7H67.7V208.5z"/>
		<path class="st14" d="M96.2,180.7h12.6v59.6H96.2V180.7z"/>
		<path class="st19" d="M124.7,186.9h12.6v53.4h-12.6V186.9z"/>
		<path class="st14" d="M153.1,156.7h12.6v83.6h-12.6V156.7z"/>
		<path class="st15" d="M96.2,180.7h5.8v59.6h-5.8V180.7z"/>
		<path class="st15" d="M67.7,208.5h5.8v31.7h-5.8V208.5z"/>
		<path class="st16" d="M153.1,156.7h5.8v83.6h-5.8V156.7z"/>
		<path class="st22" d="M124.7,186.9h5.8v53.4h-5.8L124.7,186.9z"/>
		<path class="st17" d="M172.5,249H59.4V139.3h1.7v107.9h111.4V249z"/>
		<path class="st17" d="M71,193.7l-1.2-1.3l29.6-26.6l27.4,6l29.7-33l1.3,1.2l-30.3,33.8l-27.5-6L71,193.7z"/>
		<path class="st17" d="M160.1,144.8l-8.4-8l10.8-2.9L160.1,144.8z"/>
		<path class="st14" d="M183.2,206.3h8.7v8.7h-8.7V206.3z"/>
		<path class="st19" d="M183.2,221.5h8.7v8.7h-8.7V221.5z"/>
		<path class="st18" d="M194.2,225.2h27.5v4.9h-27.5V225.2z"/>
		<path class="st18" d="M194.2,210h27.5v4.9h-27.5V210z"/>
		<path class="st14" d="M234.2,206.3h8.7v8.7h-8.7V206.3z"/>
		<path class="st19" d="M234.2,221.5h8.7v8.7h-8.7V221.5z"/>
		<path class="st18" d="M245.3,225.2h27.5v4.9h-27.5L245.3,225.2z"/>
		<path class="st18" d="M245.3,210h27.5v4.9h-27.5L245.3,210z"/>
		<path class="st14" d="M280.2,206.3h8.7v8.7h-8.7V206.3z"/>
		<path class="st19" d="M280.2,221.5h8.7v8.7h-8.7V221.5z"/>
		<g>
			<path class="st18" d="M291.2,225.2h18.1v4.9h-18.1V225.2z"/>
			<path class="st18" d="M291.2,210h18.1v4.9h-18.1V210z"/>
			<path class="st18" d="M184.8,123.4h124.5v2.3H184.8V123.4z"/>
			<path class="st18" d="M59.4,95.6h250v5.2h-250L59.4,95.6z"/>
			<path class="st18" d="M184.4,130.4h124.9v2.3H184.4L184.4,130.4z"/>
			<path class="st18" d="M184.4,116.3h124.9v2.3H184.4L184.4,116.3z"/>
			<path class="st18" d="M184.4,137.5h124.9v2.3H184.4L184.4,137.5z"/>
			<path class="st18" d="M184.4,144.5h124.9v2.3H184.4L184.4,144.5z"/>
			<path class="st18" d="M184.4,151.5h124.9v2.3H184.4L184.4,151.5z"/>
			<path class="st18" d="M184.4,158.6h124.9v2.3H184.4L184.4,158.6z"/>
			<path class="st18" d="M184.4,165.6h124.9v2.3H184.4L184.4,165.6z"/>
			<path class="st18" d="M184.4,172.7h124.9v2.3H184.4L184.4,172.7z"/>
			<path class="st18" d="M199.7,179.7h109.6v2.3H199.7L199.7,179.7z"/>
		</g>
		<path class="st19" d="M317.5,66.1H52.9c-7,0-12.7,5.7-12.7,12.7v0v11.1h290.1V78.8C330.3,71.8,324.6,66.1,317.5,66.1z"/>
		<g>
			<path class="st23" d="M292.9,78.4c0,2-1.6,3.7-3.7,3.7s-3.7-1.6-3.7-3.7s1.6-3.7,3.7-3.7C291.3,74.8,292.9,76.4,292.9,78.4z"/>
			<path class="st23" d="M307.9,78.4c0,2-1.6,3.7-3.7,3.7s-3.7-1.6-3.7-3.7c0-2,1.6-3.7,3.7-3.7c0,0,0,0,0,0
				C306.2,74.8,307.9,76.4,307.9,78.4z"/>
			<path class="st23" d="M322.8,78.4c0,2-1.6,3.7-3.7,3.7s-3.7-1.6-3.7-3.7s1.6-3.7,3.7-3.7c0,0,0,0,0,0
				C321.2,74.8,322.8,76.4,322.8,78.4z"/>
		</g>
		<path class="st24" d="M415.5,0.2h-67.9c0.5,22,0.8,44.1,1.1,66.1c0,3.4,0,6.8-1.2,10l-0.1,0c-0.9,0-0.5,0.2-0.8,1.8
			c0,0,0,0.1,0,0.1c-2.7,4.5-8.1,6.9-13.3,8.1c0,0.2,0,0.5,0.1,0.7c-0.6,0.5-0.9,1.3-0.5,2.1c0.3,0.7,4.2,1.7,9.5,1.2
			c2-0.3,4-0.9,5.9-1.6c0.8-0.4,1.5-0.9,2.2-1.5c0.7-0.1,1.3-0.2,2-0.5l0.2,0.2l6.1-2.6c0,0-0.7-3.8-1.2-5.8
			c-0.1-0.3-0.2-0.6-0.4-0.9c5.1-13.8,9.1-28,11.9-42.4c-1.1,17.9-7.5,54.2-8,55.5c-1.4,3.1-4.4,5.1-7.7,5.4c-1.4,0.1-8.5-0.3-7.8,3
			c0.2,0.8,3.9,2.4,9.2,2.8c2,0.1,4.1-0.1,6.1-0.6c1.4-0.4,2.7-1.1,3.8-2.1l0.8,1.1l6.4-1.6c0,0,0-1.7-0.1-3.7
			c-0.1-1.4-0.6-2.8-1.4-3.9l0.1-3.7l3.6-0.4c0,0,7.2-23.2,10.6-31.1c1.5-3.2,2.8-6.5,3.9-9.9c1-4,1.1-8.2,1.5-12.4
			c0.6-7.6,2-15.1,4.2-22.3c0.1-0.5,0.3-0.9,0.6-1.3c0.7-0.6,1.5-0.8,2.3-0.8c9.1-0.8,13.3,0.7,19-1.1c7.5-2.3,8.3-5.8,8.7-5.9
			C421.8,0.8,418.6,0.2,415.5,0.2L415.5,0.2z"/>
		<path class="st25" d="M440.6,152.3V73.5c-10.7,15.4-21.3,29.2-32.1,44.5c-4.7,6.7-22.9,28.8-10.4,37.6c3.2,2.3,8.7,2.2,11.5,2.4
			c9.9,0.8,19.7-2.2,29.4-5.2C439.5,152.7,440,152.5,440.6,152.3L440.6,152.3z"/>
		<path class="st26" d="M440.6,169.2l-6.5,0.5l-0.1-0.4l-5.1,0.4l-1.5-4.3c-1.1-2.6-3.6-4.2-6.4-4.1c-1.9,0-3.5,1.6-3.5,3.5
			c0,0.5,0.1,0.9,0.3,1.4c0.3,0.7,1,2.8,1.5,4.3l-5.4,0.4l0.1,0.4l-11,0.9c-1.7,0-4.3,2.3-3.8,3.8l0.1,0.2c0,0.1,0,0.3,0.1,0.4
			l9.5,26.9L408.5,317h11.1l21-81.5L440.6,169.2z M423.4,168.4c-1.6,0.1-3-0.8-3.6-2.3c-0.4-1,0-2.2,1-2.6c0.2-0.1,0.5-0.2,0.8-0.2
			c1.6-0.1,3,0.8,3.6,2.3c0.4,1-0.1,2.2-1.1,2.6C423.9,168.3,423.6,168.4,423.4,168.4L423.4,168.4z"/>
		<path class="st27" d="M27.7,122.5c-2.5,2.7-5.4,8.5-6.6,11c-1.2,2.5-2.6,3.8-6.1,5.5c-4.8,2.2-10,4.3-15,6.3v12.9
			c10.1-6.1,19.3-11.8,19.5-11.9c7.8,3,14.2-3.5,16.3-8.1c0.9-2.1-0.5-2.9-0.5-3.9c0-0.5,0.6-3.5,0.5-3.9c-0.6-2.7-7.9-0.3-7.3-1.6
			c0.5-1.8,1.6-3.4,3-4.5c3.6-2.4,6.3-5.1,6.3-6.2C37.9,116.2,28.5,121.6,27.7,122.5L27.7,122.5z"/>
	</g>
	<g transform="translate(959.313 520.409)">
		<path class="st28" d="M6.9,0h157.4c3.8,0,6.9,3.1,6.9,6.9v184.2c0,3.8-3.1,6.9-6.9,6.9H6.9c-3.8,0-6.9-3.1-6.9-6.9V6.9
			C0,3.1,3.1,0,6.9,0z"/>
		<g>
			<path class="st29" d="M17.6,20.7h141.3c1,0,1.8,0.8,1.8,1.8v37.1c0,1-0.8,1.8-1.8,1.8H17.6c-1,0-1.8-0.8-1.8-1.8V22.5
				C15.8,21.5,16.6,20.7,17.6,20.7z"/>
			<path class="st29" d="M17.6,75.8h33.7c1,0,1.8,0.8,1.8,1.8v22.3c0,1-0.8,1.8-1.8,1.8H17.6c-1,0-1.8-0.8-1.8-1.8V77.6
				C15.8,76.6,16.6,75.8,17.6,75.8z"/>
			<path class="st29" d="M71.4,75.8h33.7c1,0,1.8,0.8,1.8,1.8v22.3c0,1-0.8,1.8-1.8,1.8H71.4c-1,0-1.8-0.8-1.8-1.8V77.6
				C69.7,76.6,70.4,75.8,71.4,75.8z"/>
			<path class="st29" d="M125.2,75.8h33.7c1,0,1.8,0.8,1.8,1.8v22.3c0,1-0.8,1.8-1.8,1.8h-33.7c-1,0-1.8-0.8-1.8-1.8V77.6
				C123.5,76.6,124.3,75.8,125.2,75.8z"/>
			<path class="st29" d="M17.6,117.4h33.7c1,0,1.8,0.8,1.8,1.8v22.3c0,1-0.8,1.8-1.8,1.8H17.6c-1,0-1.8-0.8-1.8-1.8v-22.3
				C15.8,118.2,16.6,117.4,17.6,117.4z"/>
			<path class="st29" d="M71.4,117.4h33.7c1,0,1.8,0.8,1.8,1.8v22.3c0,1-0.8,1.8-1.8,1.8H71.4c-1,0-1.8-0.8-1.8-1.8v-22.3
				C69.7,118.2,70.4,117.4,71.4,117.4z"/>
			<path class="st29" d="M17.6,158.9h33.7c1,0,1.8,0.8,1.8,1.8v22.3c0,1-0.8,1.8-1.8,1.8H17.6c-1,0-1.8-0.8-1.8-1.8v-22.3
				C15.8,159.7,16.6,158.9,17.6,158.9z"/>
			<path class="st29" d="M71.4,158.9h33.7c1,0,1.8,0.8,1.8,1.8v22.3c0,1-0.8,1.8-1.8,1.8H71.4c-1,0-1.8-0.8-1.8-1.8v-22.3
				C69.7,159.7,70.4,158.9,71.4,158.9z"/>
			<path class="st29" d="M125.2,117.4h33.7c1,0,1.8,0.8,1.8,1.8v63.8c0,1-0.8,1.8-1.8,1.8h-33.7c-1,0-1.8-0.8-1.8-1.8v-63.8
				C123.5,118.2,124.3,117.4,125.2,117.4z"/>
		</g>
		<g transform="translate(13.212 18.101)" class="st30">
			<path class="st31" d="M0,4.5C0,2,2,0,4.5,0h135.9c2.5,0,4.5,2,4.5,4.5v31.7c0,2.5-2,4.5-4.5,4.5H4.5"/>
			<path class="st31" d="M1.8,55.1h33.7c1,0,1.8,0.8,1.8,1.8v22.3c0,1-0.8,1.8-1.8,1.8H1.8c-1,0-1.8-0.8-1.8-1.8V56.9
				C0,55.9,0.8,55.1,1.8,55.1z"/>
			<path class="st31" d="M55.6,55.1h33.7c1,0,1.8,0.8,1.8,1.8v22.3c0,1-0.8,1.8-1.8,1.8H55.6c-1,0-1.8-0.8-1.8-1.8V56.9
				C53.8,55.9,54.6,55.1,55.6,55.1z"/>
			<path class="st31" d="M109.4,55.1h33.7c1,0,1.8,0.8,1.8,1.8v22.3c0,1-0.8,1.8-1.8,1.8h-33.7c-1,0-1.8-0.8-1.8-1.8V56.9
				C107.6,55.9,108.4,55.1,109.4,55.1z"/>
			<path class="st31" d="M1.8,96.6h33.7c1,0,1.8,0.8,1.8,1.8v22.3c0,1-0.8,1.8-1.8,1.8H1.8c-1,0-1.8-0.8-1.8-1.8V98.4
				C0,97.4,0.8,96.6,1.8,96.6z"/>
			<path class="st31" d="M55.6,96.6h33.7c1,0,1.8,0.8,1.8,1.8v22.3c0,1-0.8,1.8-1.8,1.8H55.6c-1,0-1.8-0.8-1.8-1.8V98.4
				C53.8,97.4,54.6,96.6,55.6,96.6z"/>
			<path class="st31" d="M1.8,138.2h33.7c1,0,1.8,0.8,1.8,1.8v22.3c0,1-0.8,1.8-1.8,1.8H1.8c-1,0-1.8-0.8-1.8-1.8v-22.3
				C0,138.9,0.8,138.2,1.8,138.2z"/>
			<path class="st31" d="M55.6,138.2h33.7c1,0,1.8,0.8,1.8,1.8v22.3c0,1-0.8,1.8-1.8,1.8H55.6c-1,0-1.8-0.8-1.8-1.8v-22.3
				C53.8,138.9,54.6,138.2,55.6,138.2z"/>
		</g>
		
			<linearGradient id="SVGID_1_" gradientUnits="userSpaceOnUse" x1="-240.9819" y1="-29.0807" x2="-240.9819" y2="-30.0807" gradientTransform="matrix(37.25 0 0 -67.347 9116.0322 -1843.7628)">
			<stop  offset="0" style="stop-color:#F94F4F"/>
			<stop  offset="1" style="stop-color:#F66363"/>
		</linearGradient>
		<path class="st32" d="M122.6,114.7h33.7c1,0,1.8,0.8,1.8,1.8v63.8c0,1-0.8,1.8-1.8,1.8h-33.7c-1,0-1.8-0.8-1.8-1.8v-63.8
			C120.8,115.5,121.6,114.7,122.6,114.7z"/>
		
			<linearGradient id="SVGID_2_" gradientUnits="userSpaceOnUse" x1="-241.0706" y1="-29.0599" x2="-241.0706" y2="-30.0599" gradientTransform="matrix(36.956 0 0 -67.048 9048.3096 -1833.6703)">
			<stop  offset="0" style="stop-color:#F94F4F"/>
			<stop  offset="1" style="stop-color:#F66363"/>
		</linearGradient>
		<path class="st33" d="M123.5,180.2v-58.3c0-2.5,2-4.5,4.5-4.5h28.3c0.5,0,1.1,0.1,1.6,0.3c-0.7-1.8-2.3-2.9-4.2-2.9h-28.3
			c-2.5,0-4.5,2-4.5,4.5v58.3c0,1.9,1.2,3.5,2.9,4.2C123.6,181.3,123.5,180.8,123.5,180.2L123.5,180.2z"/>
		<path class="st26" d="M0,46.7l4.6,12.1h19.2c0,0-1.3,52.2-1.4,62s8.1,77.3,8.1,77.3h11.1L40.4,113l15.8-43.7
			c0,0,11.9,58.5,16.8,68.2s31.3,60.5,31.3,60.5h10.2l-26.2-112L77,47.2L20.3,20.7L0,22.7"/>
	</g>
	<path class="st19" d="M575.8,610.5l-9,92.7l87.9,0l-8.5-92.9L575.8,610.5z"/>
	<path class="st34" d="M591.1,619c0.1-1.7,1.6-2.9,3.3-2.8h0c1.5-0.3,3,0.8,3.3,2.3c0.3,1.5-0.8,3-2.3,3.3c-0.3,0.1-0.6,0.1-0.9,0h0
		C592.7,621.9,591.3,620.7,591.1,619L591.1,619z M594.4,617.3c-1-0.2-1.9,0.3-2.2,1.3c-0.2,1,0.3,1.9,1.3,2.2c0.3,0.1,0.6,0.1,0.9,0
		h0c1,0.2,1.9-0.3,2.2-1.3s-0.3-1.9-1.3-2.2C595,617.2,594.7,617.2,594.4,617.3L594.4,617.3z"/>
	<path class="st34" d="M623.9,618.9h0.5H623.9c0-0.7,0.3-1.3,0.8-1.8c0.7-0.6,1.6-1,2.5-1h0c1.7-0.1,3.1,1.1,3.3,2.8
		c0,0.8-0.4,1.5-1,2c-0.7,0.5-1.5,0.8-2.3,0.8h0C625.5,621.8,624.1,620.6,623.9,618.9L623.9,618.9z M627.2,617.2
		c-0.7,0-1.3,0.2-1.8,0.7c-0.3,0.3-0.5,0.7-0.5,1c0.2,1.1,1.1,1.8,2.2,1.7h0c0.6,0,1.2-0.2,1.6-0.5c0.4-0.3,0.6-0.7,0.6-1.2
		C629.3,617.8,628.3,617.1,627.2,617.2L627.2,617.2z"/>
	<path class="st34" d="M609.8,639.3c0.3,0,0.6,0,0.9,0c6-0.2,10.6-2.1,13.6-5.8c5-6,3.9-14.4,3.8-14.7c-0.1-0.6-0.6-1-1.2-0.9
		s-1,0.6-0.9,1.2c0,0.1,1,7.8-3.4,13.1c-2.6,3.1-6.7,4.8-12.1,5c-5.2,0.2-9.1-1.2-11.7-4.1c-4.7-5.2-3.5-13.8-3.5-13.9
		c0.1-0.6-0.3-1.1-0.9-1.2s-1.1,0.3-1.2,0.9l0,0c-0.1,0.4-1.3,9.6,4,15.6C600.3,637.6,604.5,639.3,609.8,639.3L609.8,639.3z"/>
	<path class="st35" d="M489.3,401.5c3.4,5.9,0.5,13.9,3.9,19.8c1.4,2.3,3.7,4.2,4.4,6.8c0.8,3.2-1.1,6.4-4.3,7.2
		c-1.4,0.4-2.9,0.2-4.2-0.5c-0.4-0.3-0.9-0.5-1.3-0.7c-1.7-0.5-3.2,1-4.7,2c-1.8,1.3-4.1,1.7-6.2,1.1c-2.6-0.9-4.3-3.5-5.1-6.2
		c-2.5-7.4-0.7-15.4,1.6-22.9c1.1-3.7,2.8-7.8,6.5-9.2"/>
	<path class="st36" d="M568.4,464.1c0.1,0.8,1.3,1.5,0.5,3.2c-1.8,3.8-7.6,9.2-14.5,6.7c-0.3,0.1-38,21.9-40.9,21.9
		s-22.7-18.7-29.2-41.9c-1.5-5.5-0.9-12,4.2-14.8c0,0,4.3,1,7.1,6.3c4.3,8.1,17.1,34.9,20,35.9c3.5-2.4,20.8-7.5,34.8-13.4
		c3.1-1.4,4.3-2.5,5.4-4.5c1.1-2.1,3.6-6.8,5.8-9.1c0.7-0.8,9-5.2,9-3.7c0,0.8-2.4,3.1-5.6,5.1c-1.3,0.9-2.2,2.3-2.7,3.8
		c-0.5,1.1,5.9-0.9,6.5,1.4C568.9,461.1,568.3,463.6,568.4,464.1z"/>
	<path class="st9" d="M486.9,438.5c4.9,1.1,9,4.3,11.3,8.7c0.6,1.1,1.1,2.3,1.5,3.5c2,5.1,4.8,9.7,6.8,14.9
		c-2.7,2.2-6.1,3.2-8.9,4.3c-2.6,1-5.5,1.4-8.3,1.1c-0.5,0-0.9-0.1-1.4-0.3c-0.6-0.3-1.1-0.7-1.4-1.2c-0.9-1-1.7-2-2.5-3
		c-0.8-0.8-1.3-1.8-1.7-2.9c-0.3-1.5-0.1-3.1,0.4-4.5"/>
	<path class="st37" d="M491.9,452.4c-0.2-0.2-0.4-0.4-0.6-0.6c-0.5-0.1-1.1,0.1-1.4,0.6c-0.2,0.5-0.3,1-0.3,1.6c0,2.1,0.3,4.1,1,6.1
		l-0.6,10.8l0,0c2.6,0.2,5.3-0.2,7.7-1.1c1.2-0.4,2.4-0.9,3.7-1.4C500.1,462.4,495.9,457.3,491.9,452.4z"/>
	<g>
		<path class="st36" d="M475.2,427.8c0,0-0.1,6.8,0.9,7.2c1.4,0.6,2.9,1,4.4,1.4l0.1,14l-18.6-2.8l-12.8-7.1c0,0,13.3-4.4,13.4-5.7
			s-0.7-8.8-0.7-8.8"/>
		<path class="st36" d="M446.5,630L446.5,630c-5.1,24.2-2.7,57.4-3.8,75.6c0.3,0.1,6.9,0.9,6.9,0.9s15.8-76.7,18.6-91.4
			c0.2-0.9,0.3-1.9,0.4-2.8c0.7-11.1-9.3-11.6-14.9-2.5c-1,1.6-1.8,3.2-2.6,4.9c-0.3,0.7-0.6,1.5-0.9,2.2l0,0
			c-1,2.5-1.8,5.1-2.5,7.7l-0.1,0.3c-0.2,0.8-0.4,1.6-0.6,2.3l0,0.2C446.9,628.3,446.7,629.2,446.5,630z"/>
		<path class="st36" d="M476.4,543.3c-0.2,2-1.3,11.5-2.5,22.7c-1.1,9.4-2.3,20.1-3.2,28.5c-0.7,6.3-1.2,11.4-1.4,13.7
			c-0.1,1.4-0.3,2.7-0.6,4.1v0.1c-2.4,11-10,11.7-14.7,9.1c-0.6-0.3-1.2-0.7-1.8-1.2c-1-0.8-1.7-2-2-3.3v0c-0.3-2.3-0.6-5.4-0.9-9
			v-0.1c0,0,0,0,0-0.1l0-0.1c-0.6-7.2-1-16.4-1.5-25.4c-0.5-11-0.8-21.7-0.9-27.7c0-0.3,0-0.7-0.1-1c-0.1-18.4,16.8-30.2,27.3-24.5
			c0.1,0.1,0.3,0.1,0.4,0.2c0.1,0.1,0.3,0.2,0.4,0.2c1.2,0.8,1.6,3.5,1.6,6.7C476.7,538.7,476.5,541.2,476.4,543.3L476.4,543.3z"/>
		<path class="st36" d="M450.7,612.7l-1.3-4.8c0,0,0,0,0,0.1c0.1,5.7-0.5,11.3-1.6,16.8l-0.1,0.3c-0.2,0.8-0.4,1.6-0.6,2.3l0,0.2
			c-0.3,0.8-0.4,1.6-0.5,2.5l0,0.1c0,2.2,4.6-7.5,5.7-9.8c0.1-0.3,0.2-0.5,0.2-0.5l-1.3-5.1L450.7,612.7z"/>
		<path class="st36" d="M487.1,634.6L487.1,634.6c-0.5,25.4,7.3,55.1,9.4,73.5c0.3,0,6.4-0.8,6.4-0.8s1.2-77.5,1.2-92.9
			c0-1,0-2-0.2-2.9c-1.3-11.2-10.3-9.2-13.8,1.2c-0.6,1.8-1.1,3.7-1.5,5.5c-0.2,0.8-0.3,1.6-0.4,2.4v0c-0.4,2.6-0.7,5.4-0.9,8.3
			l0,0.3c-0.1,0.8-0.1,1.7-0.2,2.5l0,0.2C487.1,632.9,487.1,633.7,487.1,634.6L487.1,634.6z"/>
		<path class="st36" d="M492.3,624.3c-0.6-0.2-1.2-0.4-1.8-0.8c-1.1-0.6-1.9-1.6-2.3-2.7v0c-0.7-2.2-1.5-5.2-2.3-8.8c0,0,0,0,0-0.1
			l0-0.1c-1.7-7-3.7-16-5.6-24.9c-2.3-10.8-4.4-21.4-5.5-27.3c-0.1-0.3-1-4.7-1.1-5c-3.2-18.5,11.2-30.5,21.7-27
			c0.1,0.1,0.3,0.1,0.4,0.1c2.1,0.8,2.7,8.3,3.2,13.3c0.5,5,4,56.9,4.9,66.3c0.1,1.4,0.2,2.8,0.2,4.2
			C503.7,623.1,496.9,625.7,492.3,624.3L492.3,624.3z"/>
		<path class="st36" d="M487.8,616.4l-2-4.5c0,0,0,0,0,0.1c1,5.6,1.5,11.4,1.4,17.1l0,0.3c0,0.8-0.1,1.7-0.2,2.5l0,0.2
			c-0.1,0.9-0.1,1.7-0.1,2.6v0.1c0.4,2.2,2.9-8.6,3.5-11.2c0.1-0.3,0.1-0.5,0.1-0.5l-2-4.7L487.8,616.4z"/>
	</g>
	<path class="st9" d="M455.7,507.7c0,0-13.6,17.2-12.2,34.6c0.6,7.2,1.5,13.6,2.3,20.8c0.1,1,1.7,16.3,1.3,16.3c0,0,28,8.6,55-2.7
		c0-1.8,2.2-37.3-12.4-71.1C478.4,507.1,467.1,507.9,455.7,507.7L455.7,507.7z"/>
	<path class="st9" d="M498.2,467.9c-0.1,4.9-2.7,7.9-6.5,12.1c-0.5,0.7-1.6,11.8-2,19.1c-0.2,3.8,1.4,6.2,0,6.5
		c-5.4,4.7-25,8.6-33.9,2.1c0.9-8-2.6-25.5-5-34.4c-0.4-1.4-0.7-2.5-1-3.4c-2.2-6.8-6.3-28.5-3.3-29.4c0.6-0.2,1.5-0.4,2.6-0.8
		c4.7-1.4,11.6-3.8,11.6-3.8s4.1,12,14.6,13.5c5.8-2.4,5.3-9.7,5.2-13c1.9,0.5,2.7,1,8.6,2.8c1.6,2.4,0.2,7.3,2.9,14.6
		C492.5,455.5,498.3,461.9,498.2,467.9L498.2,467.9z"/>
	<path class="st36" d="M488.6,400.2c0,0,1.1,13.1-1.2,19.9c-1.6,5.1-8.4,9.8-14.1,9.7c-15.6,0-18.4-21.2-18.3-22.2s23-9.9,23-9.9
		L488.6,400.2z"/>
	<path class="st9" d="M518.3,715.4c-5.5,1-11.5-0.6-13.9-0.1c-2,0.3-7.2,1.7-9.1-0.1s-1.6-7.9,0.6-8.7c0.5,0.2,1,0.3,1.4,0.3
		c2.2,0.3,4.4,0.1,6.6-0.5c4.2,1.7,4.4,2.5,9.2,3.5c2.1,0.4,4.1,1,6.1,1.9C521.3,712.6,521.5,714.9,518.3,715.4z"/>
	<path class="st9" d="M458.4,717.9c-5.6-0.9-9.1-4-11.5-4.4c-2-0.4-7.1-1.3-7.6-3.4c-0.4-1.5,1.1-7.9,3.5-8c0.4,0.3,0.8,0.6,1.2,0.8
		c2,1,4.1,1.6,6.4,1.7c3.4,3.1,3.3,3.8,7.5,6.4c1.8,1.1,3.6,2.4,5.1,3.8C464.6,716.4,461.6,718.4,458.4,717.9L458.4,717.9z"/>
	<path class="st36" d="M377.4,458.6l5.1-6.1l31.1,27.9c0,0,15.2-20.2,19.4-26.6c4.6-7,8.7-12.9,15.5-14.1c1.5,1-0.5,25.9-1.3,26.5
		c-9.4,7-27.7,29.7-33.5,30.9C407,498.6,377.4,458.6,377.4,458.6z"/>
	<path class="st9" d="M450.8,438.7c0,0-6.4,0.1-9.1,2.3c-2.7,2.3-15.8,23-15.8,23c0,2.8,1.3,5.4,3.4,7.2c2.7,2.2,6,3.6,9.4,4.1
		c0,0,6.6-6.5,10.3-9.5c2.3-1.9,2.5,2.7,2.5,2.7l11.6-11.3L450.8,438.7z"/>
	<path class="st35" d="M447,438.9c-0.3-0.2-0.7-0.4-1-0.6c-1.8-1.1-3.4-2.2-4.2-4.2c-1.1-2.9-1.6-7.4-0.1-10.3c1-1.9,3-3.2,4.3-4.9
		c1.8-2.4,2.4-5.5,2.5-8.5s0-6.1,0.6-9c1.1-5,2.5-9.8,6.4-13.1c6.2-5.2,18.7-8.3,25.4-2.5c1.2,1.1,1.5,1.9,3.1,2.1
		c2,0.1,4,0.6,5.7,1.7c2.2,1.3,4.9,3.1,4.6,6c-0.2,2-2.5,5.2-4.2,6.2c-0.7,0.4-1.6,0.6-2.4,0.5c-2.6,0.1-4.8-1.7-7.4-1.4
		c-1.3,0.2-2.4,0.8-3.2,1.8c-0.9,1.2-0.8,2.8-1.9,3.8c-1.7,1.7-4.5,1.6-6.5,2.7c-0.4,0.2-0.7,0.4-0.9,0.7c-0.2,0.3-0.2,0.7-0.2,1.1
		l-0.1,3.3c-1-0.5-1.1-1.9-2-2.6c-0.9-0.6-2.1-0.6-3,0.2c-0.8,0.8-1.3,1.8-1.4,2.8c-0.1,1.3,0.1,2.7,0.6,3.9
		c0.7,2.2,2.6,4.2,4.1,2.8c1.1,1.6-0.1,4.4-0.1,6.2c0,1.5,0,4.4,1.4,5.4c1.3,0.9,3.3,0.2,3.3,2.5c0.1,2.1-2,3.7-4.1,4
		s-4.1-0.5-6.2-1.1s-4.2-1.1-6.2-0.3c-1.2,0.5-2.2,1.4-3.5,1.6C449.2,439.8,448,439.6,447,438.9L447,438.9z"/>
	<path class="st36" d="M390.4,459.6c0,0-7.3-5.9-7.8-7.5s-0.6-3.3-1.2-4.9c-0.9-2.3-2.8-4.1-5.1-5.1c-1.8-0.8-0.9-1.4-2.9-1
		c-3,0.6-4.4,3.5-5.6,5.8c-5.1,9.7,8.8,11.5,9.3,11.5c1,0,6.2,5.9,6.2,5.9"/>
	<path class="st38" d="M367.3,455l5,3.3c0.6,0.4,1.5,0.2,1.9-0.4c0,0,0,0,0-0.1l11-18.5l-6.5-3.7L366.9,453
		C366.5,453.6,366.6,454.5,367.3,455C367.2,454.9,367.3,454.9,367.3,455L367.3,455z"/>
	<path class="st38" d="M349.3,415.8l1.7,1.2l7-10.2l-1.7-1.2c-2.5-1.7-6-0.8-7.9,2.1C346.5,410.5,346.9,414.1,349.3,415.8z"/>
	<path class="st13" d="M343,428.2l32.1,4.9l7.3-10.7l-16.2-28L343,428.2z"/>
	<path class="st38" d="M345,428.6l30,4.4l2.9-4.3l-25.3-11.4L345,428.6z"/>
	<path class="st13" d="M388.3,440.8c1.9,1.1,4.4,0.5,5.5-1.4l1.3-1.9c1.4-1.8,1.1-4.3-0.7-5.7c-1.9-1.1-4.4-0.5-5.5,1.4l-1.3,1.9
		C386.2,436.9,386.5,439.4,388.3,440.8z"/>
	<path class="st13" d="M388.9,433.3l-1.3,1.9c-1.4,1.5-1.3,4,0.2,5.4c1.5,1.4,4,1.3,5.4-0.2c0.2-0.3,0.5-0.6,0.6-0.9l1.3-1.9
		c0.1-0.1,0.2-0.3,0.3-0.4c-1.2,1.7-3.5,2.1-5.2,1c-1.7-1.2-2.1-3.5-1-5.2C389.1,433,389,433.1,388.9,433.3L388.9,433.3z"/>
	<path class="st38" d="M341.9,429.2c1.1,0.7,2.6,0.3,3.3-0.8l22-32.1c0.8-1,0.6-2.5-0.4-3.3c-1.1-0.7-2.6-0.3-3.3,0.8l-22,32.1
		C340.7,426.9,340.9,428.4,341.9,429.2L341.9,429.2z"/>
	<path class="st13" d="M367.4,393.6L349,420.3c-0.7,1.1-2.1,1.5-3.3,0.8c-0.2-0.2-0.4-0.4-0.6-0.6l-3.7,5.4
		c-0.8,0.9-0.8,2.3,0.2,3.1c0.9,0.8,2.3,0.8,3.1-0.2c0.1-0.2,0.3-0.3,0.3-0.5l22-32.1C367.8,395.5,367.8,394.4,367.4,393.6
		L367.4,393.6z"/>
	<path class="st13" d="M377.9,438.7l2.1,1.4c3.1,2.1,7.5,0.9,9.9-2.6l2.1-3c2.4-3.5,1.9-8-1.2-10.1l-2.1-1.4
		c-3.1-2.1-7.5-0.9-9.9,2.6l-2.1,3C374.3,432,374.8,436.6,377.9,438.7z"/>
	<path class="st38" d="M376.8,428.4l-3.1,4.5c-0.8,1-0.6,2.4,0.4,3.2l9.7,6.6c1.1,0.6,2.5,0.3,3.1-0.8l3.1-4.5
		c-0.6,1.1-2,1.4-3.1,0.8l-9.7-6.6C376.2,430.8,376,429.4,376.8,428.4z"/>
	<path class="st36" d="M368.3,450.3c-0.4-2.6,0.2-5.4,1.8-7.5c0.5-0.7,1.1-1.3,1.8-1.9c0.3-0.3,0.7-0.6,1.1-0.7
		c0.8-0.1,1.7,0.1,2.3,0.5c0.8,0.4,1.5,1.1,1.9,1.9c0.5,1.3-0.4,2.4-1.4,3.1c-0.1,0.1-0.2,0.1-0.3,0.3c-0.1,0.2,0.1,0.4,0.2,0.6
		c0.5,0.7,0.8,1.6,0.7,2.5c-0.1,0.8-0.8,1.4-1.6,1.3c0,0-0.1,0-0.1,0c-0.4-0.1-0.9-0.2-1,0.1c0,0.1,0,0.2,0,0.3
		c0.1,0.8-0.1,1.5-0.6,2.1c-0.1,0.2-0.3,0.3-0.5,0.3c-0.2,0-0.3,0-0.5-0.1c-0.6-0.2-1.2-0.4-1.7-0.8"/>
	<path class="st36" d="M382.5,452.6c-0.3-1.3-0.5-2.6-0.6-3.9c-0.1-3-1.7-5.8-4.2-7.4c-0.2-0.1-0.4-0.2-0.7-0.2
		c-0.3,0.1-0.5,0.3-0.6,0.7c0,0.3,0,0.6,0.1,0.9c0.3,0.9,1.6,2.7,1.2,3.6c-0.7,1.4-1,3-1,4.6c0,1.4,0.7,3.7,2.3,3.9"/>
	<path class="st39" d="M345.3,378.8l6.5,15.2"/>
	<path class="st39" d="M331.8,392.3l13.2,9.9"/>
	<path class="st39" d="M323.3,410.8l16.5,1.6"/>
	<path class="st40" d="M850.6,250.6c0,0-5.9-4.2-6.1-5.9s-4.3-8.9-5.7-10.3s-8.2-3.8-9.7-4s-10,0.5-8.9,1.7s6.5,0.7,7.6,1.4l1.1,0.6
		c0,0-1.1,1.4-0.6,2.3s-1.8,2.2-1,3.7s-0.3,1.4,0.4,2.9c1.2,2.5,4.4,4,5.3,3.3c0.6,1.5,3.1,4.6,5.3,4.4s7.8,5,7.8,5"/>
	<path class="st40" d="M940.7,220.9c0.2,4-0.1,10.9,1.1,11.9s4.8,0.9,4.8,0.9s-13.1,16.6-14.3,15.7s-16.7-13.6-13.2-14.2
		s6.9-0.5,6.8-2.3s-0.2-3.6-0.3-5.4"/>
	<path class="st41" d="M955.7,309.5c0,0-25.6,2.9-31.5,3c-5.9,0.1-5.6-3-5.6-3c-0.3-6.5-1.4-21.8-2.6-26.9
		c-1.1-4.8-1.6-6.6-2.6-11.2c-2.2-10.2-2.1-12.2-4.4-24.8l15.3-12.3c0,0,1.6,4.7,8,4.8c8.6,0.1,11.2-5.9,11.2-5.9l20.9,13.8l2,33.7
		l-2.5,27.7"/>
	<path class="st40" d="M941,217.3c-0.5,2-1.1,4-1.8,5.9c-1.4,3.5-3.3,4.8-7.1,4.9l-7.8,0.2c-2,0-4.5,0.1-6.1-1.3s-1.6-3.7-2-5.7
		c-0.5-2.5-0.8-5-1.1-7.5c-0.6-4.9-0.8-9.8-0.7-14.7c0-0.7,0.1-1.4,0.2-2c0-0.3,0.2-0.5,0.3-0.7c0.3-0.2,0.6-0.3,0.9-0.4
		c4.9-0.8,9.9-1.1,14.8-0.9c3.5,0.1,7.2,0.5,10,2.6c2.8,2.2,4.1,5.7,5.3,9c0.2,0.5,0.3,1.2-0.1,1.6"/>
	<path class="st42" d="M883.6,400.8c0.4,2.3,0.9,4.6,1.5,6.8c0.7,1.7,6.4,0.1,6.8-1c0.4-1.1-1.8-9.4-1.8-9.4"/>
	<path class="st43" d="M893.9,408c0.5,1.9,1.1,5.5,1.1,5.5l-5.7,2.5l-0.9-0.9c-0.9,1-2,1.9-3.2,2.5c-1.8,0.7-3.6,1.2-5.5,1.5
		c-5,0.5-8.7-0.4-8.9-1.1c-1.2-2.9,5.4-3.7,6.7-4c3.1-0.8,5.5-3.2,6.3-6.3c0.3-1.5-0.1-1.8,0.8-1.7c0.5,0,1.1,0.3,1.4,0.7
		c1,1.1,2.6,1.5,4.1,0.9c0.8-0.3,1.5-0.9,2-1.7C893,406.2,893.7,407,893.9,408L893.9,408z"/>
	<path class="st43" d="M908.8,334.2c-9.6,1.7-19.4,1.9-29.1,0.7c1.3,3.6,4.4,8.2,5.5,13.3c3.9,16.8,5.2,39.4,6.2,53.3
		c0,0-1.9,3.6-7.8,0.9c-8.9-22.1-24.5-66.8-24.4-76.5c0.2-12.4,31-15.3,53.6-18.4"/>
	<path class="st44" d="M948.2,309.5c7.1,5.2-39.4,24.7-39.4,24.7c-5,1-10.1,1.5-15.2,1.5c-0.5-0.9-0.9-1.9-1.1-2.9
		c-0.3-1.4-0.1-2.8-0.4-4.1c-0.6-2.7-2.3-4.9-4.6-6.3c-2.4-1.3-4.9-2.1-7.6-2.5c-6.3-1-17.3-0.3-17.3-0.3
		c14-10.3,42.6-11.6,55.9-12.5C921,311.4,947.2,308.7,948.2,309.5L948.2,309.5z"/>
	<path class="st42" d="M898.4,412.5c0,2.3,0.1,4.7,0.3,7c0.4,1.8,6.3,1.2,6.8,0.2c0.6-1-0.1-9.6-0.1-9.6"/>
	<path class="st43" d="M907.2,421.5c0.2,1.9,0.2,5.6,0.2,5.6l-6.1,1.5l-0.8-1c-1,0.9-2.3,1.5-3.6,1.9c-1.9,0.4-3.8,0.6-5.7,0.6
		c-5-0.3-8.4-1.9-8.6-2.6c-0.7-3.1,5.9-2.7,7.3-2.8c3.2-0.3,5.9-2.2,7.3-5.1c0.6-1.4,0.2-1.8,1.1-1.6c0.5,0.1,1,0.4,1.3,0.9
		c0.8,1.3,2.3,2,3.8,1.6c0.9-0.2,1.7-0.6,2.3-1.3C906.6,419.5,907.2,420.4,907.2,421.5z"/>
	<path class="st43" d="M963.7,308.5c-10.5,0.9-21,1.2-31.5,1c-4,0-34.5,5.7-37.4,10.9c-4.8,8.5,3.1,58.1,2.4,93.5
		c0,0,3.6,3,10.1,0.2c1.6-17.4,11.9-58.6,4.8-77.8c16.8,2.2,30.3,4.4,45.6-0.6c3.6-1.2,6.2-3.7,7.8-8.3
		C967.2,322.7,966.3,312.6,963.7,308.5L963.7,308.5z"/>
	<path class="st41" d="M924.2,234.3c0,0-3.7,0.2-4.4,0.3c-3.1,0.2-6.1,0.7-9,1.7c-4.1,1.5-7.1,5.4-10.4,8.4
		c-3.3,2.9-20.1,19-23.2,19.5c-3.1,0.6-30.7-18.3-30.7-18.3l-6.7,6.7c0,0,29.9,27.6,38.8,27.7c4.3,0,28.2-12.6,35.9-17.4
		L924.2,234.3z"/>
	<path class="st45" d="M878.6,275c-6.2,0.3-34.3-21.2-37.6-23.7l-1.3,1.3c0,0,29.9,27.6,38.8,27.7c3.6,0,20.8-8.7,30.8-14.4l2.6-1.5
		l-1.6-9.3C910.4,255.1,885.1,274.7,878.6,275z"/>
	<path class="st46" d="M849.9,314h68.5l-12.3-40c-0.7-2.2-2.7-3.7-5-3.7h-60c-1.9,0-3.4,1.5-3.4,3.4c0,0.3,0.1,0.7,0.2,1L849.9,314z
		"/>
	<path class="st47" d="M849,314h67.5l-12.3-40c-0.7-2.2-2.7-3.7-5-3.7h-60c-1.9,0-3.4,1.5-3.4,3.4c0,0.3,0.1,0.7,0.1,1l11.8,38.4
		C847.9,313.6,848.4,314,849,314z"/>
	<path class="st45" d="M954.3,253.6c-3.4,15.4-4,27.5-5,38.5c-12,4.6-16.8,11.6-28.6,16.8c0,0-9.2-1.5-10.2,2
		c-0.6,2,10.8,3.6,10.8,3.6c10.9,0.1,39.5-7.9,41.4-8.4c1.9-0.5,7.6-36.9,7.8-56.7c0-2.8-0.1-5.8-1.8-8c-1-1.1-2.2-2-3.5-2.6
		c-7.6-3.9-13.3-5-21.9-5.5"/>
	<path class="st40" d="M922.4,311.3c-1.3-1.6-3.6-1.9-5.7-1.8c-1.5,0-3.1,0.2-4.6,0.4c-0.7,0.1-1.5,0.3-1.6,1
		c-0.1,0.7,3.4,0,5.2,0.5c-3.5,0.3-7.1,0.4-10.6,0.3c-0.4,0-0.8,0-1.2,0.1c-0.4,0.1-0.7,0.5-0.7,0.9c0.1,0.3,0.2,0.6,0.5,0.8
		c1.1,0.8,2.3,1.3,3.6,1.5c5.4,0.9,11.1,0.8,16.1-1.4"/>
	<path class="st41" d="M953.6,253.3c-0.3,16.5-1.5,24-1.1,40.5c-8.3,1.8-19.7,11.1-31.4,16.3c-0.4,1.4-0.3,2.9,0.4,4.3
		c0.9,0.3,39.5-9.1,42.6-11.9c2.8-2.5,6.4-33.4,6.6-53.2c0-2.8-0.1-5.8-1.8-8c-1-1.1-2.2-2-3.5-2.6c-7.6-3.9-13.3-5-21.9-5.5"/>
	<path class="st48" d="M883.8,292.8c0.2,3.5-3.9,6.4-9.3,6.4s-9.9-2.8-10.2-6.4c-0.2-3.5,3.9-6.4,9.3-6.4S883.6,289.3,883.8,292.8z"
		/>
	
		<ellipse transform="matrix(3.900933e-02 -0.9992 0.9992 3.900933e-02 547.4376 1154.8268)" class="st49" cx="874.1" cy="292.8" rx="3.5" ry="6.2"/>
	<path class="st50" d="M929,206.8c-0.1-0.6-1.5-0.7-2.9-0.6s-5,0.6-5.8,1.2s-0.7,1-1.1,1.1s-0.4-0.4-1.3-0.8s-3-0.1-4.4,0.1
		s-2.7,0.5-2.7,1.1c0,0.7,0.2,1.3,0.6,1.9c0.3,0.2,0.3,0.1,1.4,2.6c0.4,1.4,1.8,2.2,3.2,1.8c0,0,0.1,0,0.1,0
		c2.3-0.5,2.4-3.1,2.6-4.1s0.3-1.2,0.7-1.3s0.6,0.1,1,1.1s0.8,3.3,3.1,3.4c3,0.2,4.3-0.9,4.8-2.8c0.6-2.6,0.4-2.6,0.7-2.9
		c0.8,0,1.5,0.1,2.3,0.2l-0.1-0.8C930.3,207.6,929.6,207.2,929,206.8L929,206.8z M917.9,212.1c0.1,1.4-0.9,2.6-2.2,2.8
		c-1.4,0.2-2-0.6-2.8-2.3c-0.5-1-0.7-2.1-0.4-3.2c0.2-0.4,1-0.4,2.7-0.5s2.3-0.1,2.6,0.6C918,210.2,918,211.2,917.9,212.1
		L917.9,212.1z M927.8,210.6c-0.3,1.9-1,2.8-2.9,3.1c-2.7,0.3-3.2-0.7-3.6-2c-0.3-0.9-0.5-1.8-0.5-2.7c0.1-0.8,0.7-0.9,2.3-1.2
		s4-0.7,4.3-0.4C928,208.4,928.1,209.5,927.8,210.6L927.8,210.6z"/>
	<path class="st51" d="M947.3,202.5c-0.2-1.4-0.4-2.7-0.8-4.1c-0.9-3.5-3.1-6.5-6.3-8.3c-4.4-2.2-9.5-2.7-14.3-1.4
		c-2.6,0.7-3.6,2.1-4.9,2.1c-1.3-0.2-2.5-0.6-3.7-1.2c-10.2-3.7-8.5,6.3-7.4,9.1c0.5,1.2,2.8,2.1,3.1,2.6s0.3,3,0.5,4.1
		c0.2,0.7,0.6,1.2,1.3,1.5c0,0,0.1-3.2,0.1-3.7c0-1.2,0.6-2.3,1.5-3c1.1-0.6,2.4-0.9,3.7-1c2.6,0.1,5.1,0.5,7.5,1.2
		c1.9,1.6,2.4,5.4,2.9,7.6c0.2,1,0.5,1.7,0.9,1.7c0.3-3,1.4-3.1,3.2-2.1c1,0.6,1.5,2.5,1.5,4.1c0,1.9-1,4-3.1,4.5
		c-0.7,0.2,1.5,4.3,2.5,5.3c0.3,0.4,0.7,0.7,1.1,0.9c0.4,0.2,0.8,0.4,1.2,0.5l1.5,0.4c0.6,0.2,1.3,0.3,2,0.2
		c1.1-0.3,1.7-1.5,2.1-2.5c0.8-1.7,1.7-3.3,2.4-5C947.4,211.7,947.8,207.1,947.3,202.5L947.3,202.5z"/>
	<path class="st9" d="M1131.8,354.3h-129.7l15.5-11.5v-56.1c0-4.7,3.8-8.5,8.5-8.5h105.7c4.7,0,8.5,3.8,8.5,8.5v59.1
		C1140.3,350.6,1136.5,354.3,1131.8,354.3z"/>
	<path class="st52" d="M1069.8,289.3h59.3v5.7h-59.3V289.3z"/>
	<path class="st52" d="M1069.8,297.7h59.3v5.7h-59.3V297.7z"/>
	<path class="st52" d="M1069.8,306.2h59.3v5.7h-59.3V306.2z"/>
	<path class="st52" d="M1069.8,314.4h59.3v5.7h-59.3V314.4z"/>
	<path class="st52" d="M1069.8,324.3h41.3v5.7h-41.3V324.3z"/>
	<path class="st53" d="M1031.3,289.3h30.4c1.9,0,3.4,1.5,3.4,3.4v36.7c0,1.9-1.5,3.4-3.4,3.4h-30.4c-1.9,0-3.4-1.5-3.4-3.4v-36.7
		C1027.9,290.8,1029.4,289.3,1031.3,289.3z"/>
	<path class="st54" d="M1027.9,338.2h37.2v4.7h-37.2V338.2z"/>
	<path class="st0" d="M1050.2,317.5h-13.5c-0.8,0-1.4-0.5-1.6-1.2l-2.6-9.6c-0.2-0.9,0.3-1.8,1.2-2.1c0.1,0,0.3-0.1,0.4-0.1h18.7
		c0.9,0,1.7,0.7,1.7,1.7c0,0.2,0,0.3-0.1,0.4l-2.6,9.6C1051.6,317,1051,317.5,1050.2,317.5z"/>
	<path class="st0" d="M1052.6,319.7h-16.3c-0.2,0-0.3-0.2-0.3-0.3c0-0.2,0.2-0.3,0.3-0.3h16l5.7-19.7c0-0.1,0.2-0.2,0.3-0.2h3.5
		c0.2,0,0.3,0.2,0.3,0.3c0,0.2-0.2,0.3-0.3,0.3h-3.3l-5.7,19.7C1052.9,319.6,1052.7,319.7,1052.6,319.7z"/>
	<path class="st0" d="M1038.8,322.3c0,1.1-0.9,2-2,2c-1.1,0-2-0.9-2-2c0-1.1,0.9-2,2-2c0,0,0,0,0,0
		C1037.9,320.3,1038.8,321.2,1038.8,322.3z"/>
	<circle class="st0" cx="1051.1" cy="322.3" r="2"/>
	<path class="st55" d="M650.2,276h165.2l-19.8-14.6V171c0-6-4.8-10.8-10.8-10.8c0,0,0,0,0,0H650.2c-6,0-10.8,4.8-10.8,10.8
		c0,0,0,0,0,0v94.2C639.4,271.2,644.2,276,650.2,276L650.2,276L650.2,276z"/>
	<g transform="translate(653.752 176.988)" class="st30">
		<path class="st23" d="M75.5,7.2H0V0h75.5V7.2z"/>
		<path class="st23" d="M75.5,18H0v-7.2h75.5V18z"/>
		<path class="st23" d="M75.5,28.8H0v-7.2h75.5V28.8z"/>
		<path class="st23" d="M75.5,39.3H0v-7.2h75.5V39.3z"/>
		<path class="st23" d="M75.5,49.8H0v-7.2h75.5V49.8z"/>
		<path class="st23" d="M75.5,68.9H0v-7.2h75.5V68.9z"/>
		<path class="st23" d="M128.8,80.3H0v-7.2h128.8V80.3z"/>
	</g>
	<path class="st19" d="M778.3,232.4h-38.8c-2.4,0-4.3-1.9-4.3-4.3v-46.8c0-2.4,1.9-4.3,4.3-4.3h38.8c2.4,0,4.3,1.9,4.3,4.3v46.8
		C782.6,230.5,780.7,232.4,778.3,232.4z"/>
	<path class="st52" d="M782.6,245.3h-47.4v-6h47.4V245.3z"/>
	<path class="st10" d="M754.2,213h17.2c1,0,1.8-0.6,2.1-1.6l3.3-12.2c0.3-1.1-0.4-2.3-1.5-2.6c-0.2,0-0.4-0.1-0.6-0.1h-23.8
		c-1.2,0-2.1,1-2.1,2.1c0,0.2,0,0.4,0.1,0.6l3.3,12.2C752.4,212.3,753.2,213,754.2,213L754.2,213z"/>
	<path class="st10" d="M751.2,215.7h20.7c0.2,0,0.4-0.2,0.4-0.4c0-0.2-0.2-0.4-0.4-0.4c0,0,0,0,0,0h-20.4l-7.2-25.1
		c-0.1-0.2-0.2-0.3-0.4-0.3h-4.5c-0.2,0-0.4,0.2-0.4,0.4c0,0.2,0.2,0.4,0.4,0.4c0,0,0,0,0,0h4.2l7.2,25.1
		C750.8,215.6,751,215.7,751.2,215.7L751.2,215.7z"/>
	<path class="st10" d="M768.7,219.1c0,1.4,1.1,2.5,2.5,2.5s2.5-1.1,2.5-2.5c0-1.4-1.1-2.5-2.5-2.5c0,0,0,0,0,0
		C769.9,216.6,768.7,217.7,768.7,219.1C768.7,219.1,768.7,219.1,768.7,219.1z"/>
	<path class="st10" d="M750.5,219.1c0,1.4,1.1,2.5,2.5,2.5s2.5-1.1,2.5-2.5c0-1.4-1.1-2.5-2.5-2.5c0,0,0,0,0,0
		C751.6,216.6,750.5,217.7,750.5,219.1C750.5,219.1,750.5,219.1,750.5,219.1z"/>
	<ellipse class="st1" cx="1032.2" cy="744.1" rx="72.8" ry="7.7"/>
	<path class="st47" d="M993.2,733.2c-0.6,1.2-3.5,3.9-7.6,5.8s-12.6,2.7-7.9,4.3s10.3,0.6,13.2,0.2c2.9-0.4,5.9-0.6,8.9-0.5
		c4.4,0,4.4-0.3,3.8-5.2C1002.8,730.8,995.2,729.4,993.2,733.2L993.2,733.2z"/>
	<path class="st47" d="M1072.7,730.7c-0.2,1.4,1.7,5.5-1.8,8.6s-11.4,6.3-6.2,6.4c4.4,0.1,8.9-0.7,13-2.4c2.7-1.3,0.5-3.4,3.8-4.4
		c4.4-1.4,3.5-4.6,1.2-6.6C1079.8,725.8,1073.4,726.3,1072.7,730.7z"/>
	<path class="st56" d="M1055.9,592.2c0,0,10.5-30.7-19.2-56.1c0,0-15.9,6.3-28.6,7.1c-10,0.6-15.1-0.3-15.1-0.3s-0.8,27.3-0.9,42
		L1055.9,592.2z"/>
	<path class="st56" d="M989.7,643.2c-0.6-13.7,14.3-11.9,19.8-1.7c11.4,21.2-4.2,70.1-6.2,93.3c-2.1,0.8-5.7,1.5-7.9,0.5
		c-1-0.6-1.8-1.5-2.3-2.5C993.5,704.4,990.3,657.9,989.7,643.2z"/>
	<path class="st56" d="M1009,645.3c-1.7,5.6-20.7,11.5-19.2-8.9c0.7-9.1,2.5-59.1,2.9-63.9s1.2-11.9,3.5-12.8
		c11.7-4.4,32.3,10.8,29.2,28.9C1023.3,600.8,1012.6,633.7,1009,645.3L1009,645.3z"/>
	<path class="st56" d="M1039,653.1c-4.6-13,10.3-15.3,18.8-7.3c19.8,18.7,20.6,62.8,25.5,85.5c-2.6,1.6-5.6,2.4-8.7,2.5
		c-0.9,0-1.8-0.5-2.4-1.2C1064.1,705.4,1043.9,667,1039,653.1z"/>
	<path class="st56" d="M1058.6,648.9c0.5,5.8-15.3,17.9-21.6-1.6c-2.8-8.7-14.6-59.8-16.1-64.4s-1.1-14.1,0.8-15.8
		c9.2-8.5,29.8-1,33.8,16.9C1058.1,596,1057.5,636.7,1058.6,648.9L1058.6,648.9z"/>
	<path class="st57" d="M976.9,425c0.5-0.6,1.1-1.1,1.6-1.8c3.8-4.8,4.3-9.1,7.8-14.6c0.7-1.7,1.6-3.3,2.5-4.8
		c1.6-1.9,3.5-3.4,5.7-4.6c1.6-0.9,0.2,2.7,0.2,2.7s1.4-2,2.7-1.9c0.5,0.1,0.6,3.1,0.6,3.6c0.1,4.2-0.9,8.4-2.9,12.1
		c-0.5,0.8-0.9,1.8-1,2.8c1.2-0.2,2.4-0.8,3.3-1.6c1-0.7,2.3-1.4,3.4-1c-0.2,0.5-0.4,1-0.7,1.4c-1.5,2.8-3.2,5.8-6,7.1
		c-1.7,0.8-3.7,1-5.3,1.8c-3,1.6-4.5,5.3-7.5,6.8"/>
	<path class="st58" d="M994.1,399.9l10.8,4.5c0.3,0.1,0.5,0.5,0.3,0.8l-8.7,20.9c-0.1,0.3-0.5,0.5-0.8,0.3l-10.8-4.5
		c-0.3-0.1-0.5-0.5-0.3-0.8l8.7-20.9C993.4,399.9,993.8,399.8,994.1,399.9z"/>
	<path class="st59" d="M994.3,401.4l10,4.2l-8.2,19.7l-10-4.2L994.3,401.4z"/>
	<path class="st60" d="M1004.4,444.5c-4.9,0.3-9.8,1.1-14.5,2.5c-10.3,3.1-13.9,7.9-17.4,9.9c6.9-8.8,14.7-27.5,14.7-27.5
		s-9.3-7.7-10.4-5.8c-1.1,1.8-40.2,47.6-38.9,55c0.5,3.1,5,6.1,9,5.9c11.1-0.4,24-4.4,37.5-8.8c5.9-1.9,7.8,2.2,7.8,2.2"/>
	<path class="st57" d="M987.9,408.7c0.4,0.4,0.7,1,0.7,1.6c0.3,2.2,0.7,4.5-0.2,6.6c-0.6,1.3-1.5,2.5-2.6,3.4c-1.2,1.1-2.6,2-4,2.8"
		/>
	<path class="st61" d="M1004.6,392.2c-2.6,0.8-4,4.1-4.9,6.4c-1,2.8-1.7,5.7-2,8.7c-0.4,2-0.2,4.1,0.4,6.1c0.5,1,1,1.8,1.7,2.7
		c0.3,0.5,0.8,0.9,1.2,1.3c0.5,0.4,1.1,0.5,1.7,0.3c0.8-0.3,1.1-1.3,1.4-2.1c1.5-5.5,3.2-11,6.2-15.8"/>
	<path class="st57" d="M1001.7,409.5c-0.1-1.7-1.9-2.9-3.5-1.1c-1.3,1.5-1.7,4.3-1.7,6.4c-0.1,2.5,1.9,3,3.5,3.4"/>
	<path class="st60" d="M984.3,453.5c3.2-3.7,13.5-9.8,27.1-9.4c9.4,0.3,35.1,1.9,37.9,8.2c1.5,3.2,3,36.2,0.9,47.6
		c-1.6,8.6-5.7,29.7-5.7,34.9c0,5.1,2.7,7.3,1.5,8.8c-2.9,3.3-22.5,4.7-31.7,4.7c-8.2,0-22.2-2.2-22.9-4.8c-1-3.9,1.6-3.8,2-7.8
		c0.4-4.1,1.4-30.6-0.1-35c-2.7-7.8-4-20.6-6.2-26.4C985.4,469.7,981,457.2,984.3,453.5L984.3,453.5z"/>
	<path class="st62" d="M1043,480.2c1,2,7.6,12.7,7.6,12.7l0.3,1.3c-0.1,1.9-0.3,3.8-0.7,5.7c-1.6,8.6-5.7,29.7-5.7,34.9
		c0,5.1,2.6,7.2,1.5,8.8c-2.3,3.1-39.3,10-37.5,1.4c0.2-0.8,31.1-24.4,31.2-25.1c1.4-6.8,2.7-11.6,3.3-16.6
		C1044.5,491.3,1042,478.1,1043,480.2z"/>
	<path class="st63" d="M1003.9,432.3c0,0-0.1,10.7-0.5,11.2c-0.8,0.6-1.7,1-2.6,1.4c0,0,1.5,9.3,3.8,8.6s17.8-8.5,17.8-8.5
		s-2.2-0.9-2.2-1.8s2.1-17.7,2.1-17.7"/>
	<path class="st63" d="M1014.7,393.3c-2.3,0.6-8.2-0.6-9.8,1.8c-1.6,2.5-3.1,8.4-3.7,10c-1.2,3.3-2,6.7-2.9,10.1
		c-1.2,4.4-3.1,12.4,1.2,16c0.9,0.9,2,1.5,3.3,1.7c2,0.4,4,0.8,6.1,1.1c3.1,0.6,6.6,1.2,9.7,0.2c4.2-1.4,6.4-7.1,7.5-11l6.1-22.3
		L1014.7,393.3z"/>
	<path class="st64" d="M1003.6,457.7c0,0-0.9,41.9-2.6,67.4l6.2,8.5l4.2-10.6c0.8-21.7-0.5-43.5-4-64.9L1003.6,457.7z"/>
	<path class="st64" d="M1002.1,454l0.1,0.6c0.3,1.1,0.7,2.1,1.3,3.1l3.8,0.3c0,0,2.6-1.3,2.9-2.8s-4.2-3.8-4.2-3.8l-0.6,0.2
		C1004.2,452.1,1003.1,452.9,1002.1,454L1002.1,454z"/>
	<path class="st47" d="M1020.6,440.7c1.7,1.2,3.2,2.6,4.3,4.4c-1.9,4.4-6.3,12.3-11.2,15.9c-1.6-3.9-4.2-7.2-7.7-9.6
		C1006,451.4,1019.2,449.1,1020.6,440.7z"/>
	<path class="st47" d="M1006,451.4c-3.2,1.5-5.9,4-7.5,7.1c0,0-0.9-7.1,1-13.3c0,0,3.1-4,4.2-4C1003.3,446.3,1006,451.4,1006,451.4
		L1006,451.4z"/>
	<path class="st57" d="M1006.6,544.9c-4.7,0.7-6.4,2.4-9.1,5.1c-0.2,0.2-0.4,0.5-0.4,0.8c0.1,0.4,0.5,0.5,0.9,0.6
		c2.2,0.3,2.5-1,4.6-1.9c1.4-0.6,2.7-1.2,4.1-1.8"/>
	<path class="st65" d="M990.7,510.8l16.6,53.2c0.4,1,0,2.1-1,2.5c-0.2,0.1-0.5,0.2-0.8,0.2l-34.6,3c-1.3-0.1-2.5-1-2.9-2.2
		l-17.8-52.4c-0.4-1.4,1.6-3.5,3-3.5l34.6-3C989.2,508.6,990.3,509.5,990.7,510.8L990.7,510.8z"/>
	<path class="st66" d="M989.6,512.2l16.4,52.3c0.4,1,0,2.1-1,2.5c-0.3,0.1-0.5,0.2-0.8,0.2l-34.6,3c-1.3-0.1-2.5-1-2.9-2.2
		l-16.4-52.3c-0.4-1,0-2.1,1-2.5c0.2-0.1,0.5-0.2,0.8-0.2l34.6-3C988,510,989.2,510.9,989.6,512.2L989.6,512.2z"/>
	<path class="st23" d="M961.9,510.5l1.2,4.6l16.2-1.4l-1.3-4.6L961.9,510.5z"/>
	<path class="st23" d="M965,506.2c0.3,1.1,1.6,5.2,1.6,5.2l7.7-0.7l-1.6-5.2c-0.7-2.2-2.8-3.7-5.1-3.7
		C965.5,502,964.3,504,965,506.2z M966.7,506.1c-0.4-0.9,0-1.9,0.9-2.3c0.2-0.1,0.4-0.1,0.5-0.1c1.3,0,2.5,0.8,2.9,2.1
		c0.4,0.9,0,1.9-0.9,2.3c-0.2,0.1-0.4,0.1-0.5,0.1C968.3,508.2,967.1,507.4,966.7,506.1L966.7,506.1z"/>
	<path class="st63" d="M1019.8,541.2c-3.6,0.8-13.3,3.6-14.3,4.1c-2.2,1.3-4.3,2.9-6.2,4.6c-3.6,3.7-1.8,5.4-3.2,10.3
		c-0.1,0.3-0.1,0.5-0.1,0.8c0,0.5,0.7,1,1.4,0.5c0.4,0.6,1.5,0.2,2-0.5c0,0.5,0.7,0.8,1.8,0.2c0.6-0.3,0.5-0.3,1.9-1.5
		c1.2-1,2.5-1.8,3.9-2.4c1.3-0.5,2.6-1.1,3.8-1.8c1.5-1,4.1-1.2,5.4-5.4c0.4-0.9,1.1-1.6,2-2l5.9-3.7"/>
	<path class="st60" d="M1042.1,473.1c1.5,5.5,7.9,43.5,7.9,43.5l-36.1,26.1l3,7.9c0,0,43.2-14.5,46.6-24.4s3.2-54.7-8.7-70.4
		c-3.8-5-11.5-7.5-11.5-7.5"/>
	<path class="st67" d="M1005.1,554.9c-0.9,0.6-1.7,1.2-2.5,1.9c-1,1.1-1.8,2.3-2.9,3.6"/>
	<path class="st67" d="M1003.1,552.5c-1.2,1-2.2,2.2-3,3.6c-0.7,1.6-1.5,3.1-2.4,4.6"/>
	<path class="st67" d="M1000.9,550.6c-0.3,0.6-1.8,2-2.1,2.5c-0.9,1.9-1.6,3.8-2.1,5.9"/>
	<path class="st68" d="M1028.4,419.5c-1.4-0.8-2.5-1.7-3.4-0.3c-0.5,0.7-0.8,1.7-1.6,2c-0.9,0.1-1.7-0.5-1.9-1.3
		c-0.1-0.9,0-1.7,0.3-2.5c0.6-1.8,1.1-3.7,1.7-5.5c0.6-1.8,1.1-3.8,0.4-5.5c-0.4-0.9-1-1.6-1.7-2.2c-2.5-1.9-5.4-3.1-8.4-3.6
		c-3.1-0.5-6.1-1.1-9.1-1.9c-1.3-0.3-2.4-0.9-3.5-1.7c-1.6-1.4-2.5-3.5-2.4-5.6c0-2.1,0.6-4.2,1.8-5.9c0.2,0.7,0.5,1.4,0.9,2.1
		c0.4-1,0.9-1.8,1.7-2.6c0.9,4.9,21.6,3.3,26.4,5.4c3.3,1.5,6.1,2.5,6,7.9c0.1,0.3,0.4,0.6,0.7,0.9c3,2.7,4.3,6,4.6,11
		c0.5,6-3,12.5-6.5,17.5c-0.7,1.2-1.5,2.2-2.6,3.1c-1.4,1-3.1,1.3-4.8,1.1c-1.5-0.3-4.4-0.2-4.5-1.7c0-1.1,2.3-3,2.9-3.9"/>
	<path class="st63" d="M1023,425.2c-0.3,1,0.3,2.1,1.3,2.4c0.5,0.2,1.1,0.1,1.6-0.2c2.2-0.8,3.8-2.8,4.1-5.1
		c0.5-2.6-0.9-5.2-3.3-4.5c-1.4,0.5-2.3,1.9-2.3,3.4"/>
	<path class="st57" d="M1004,433.2l6.6,1.2c-1.8,1.7-4.2,2.6-6.7,2.5"/>
	<g transform="translate(455.776 287.871)" class="st69">
		<path class="st70" d="M27.6,31.7l8.9,4.5L32,25.2"/>
		<path class="st70" d="M0,17.7c0,9.8,8.4,17.7,18.8,17.7s18.8-7.9,18.8-17.7S29.1,0,18.8,0S0,7.9,0,17.7L0,17.7z"/>
		<path class="st71" d="M14.2,11.9v12.7c0,0.7,0.6,1.3,1.3,1.3c0.2,0,0.5-0.1,0.7-0.2l11-6.3c0.6-0.4,0.9-1.2,0.5-1.8
			c-0.1-0.2-0.3-0.4-0.5-0.5l-11-6.3c-0.6-0.4-1.4-0.1-1.8,0.5C14.2,11.4,14.2,11.7,14.2,11.9z"/>
	</g>
	<g class="st69">
		
			<linearGradient id="SVGID_3_" gradientUnits="userSpaceOnUse" x1="682.7587" y1="515.5501" x2="682.7587" y2="514.5501" gradientTransform="matrix(8.884 0 0 -10.9 -4972.1787 6067.3301)">
			<stop  offset="0" style="stop-color:#F94F4F"/>
			<stop  offset="1" style="stop-color:#F66363"/>
		</linearGradient>
		<path class="st72" d="M1097.9,454.3l-8.9,4.5l4.4-10.9"/>
		<path class="st19" d="M1125.4,440.3c0,9.8-8.4,17.7-18.8,17.7s-18.8-7.9-18.8-17.7s8.4-17.7,18.8-17.7S1125.4,430.5,1125.4,440.3z
			"/>
		<g>
			<path class="st71" d="M1103.3,448.8c4.1,0.1,8.2,0.1,12-0.1c1.2-0.1,2.2-1.9,0.8-2.4c0.6-0.2,1.2-0.6,1.5-1.2
				c0.3-0.6,0-1.3-0.6-1.6c0,0-0.1,0-0.1,0c1.4,0.3,2-1.8,0.9-2.5c0.6-0.4,1-1.1,1.2-1.8c0.1-0.7-0.2-1.5-0.9-1.9
				c-0.5-0.2-1-0.3-1.5-0.2c-1.7,0-3.4,0-5.1,0c0.5-2.5,0.6-5.3-0.8-7.5c-0.4-0.7-1.5-1.5-2.4-0.9c-0.8,0.5-0.6,1.7-0.5,2.4
				c0.1,3.3-1.7,6.3-4.7,7.8C1103.2,438.8,1103.3,445.4,1103.3,448.8L1103.3,448.8z"/>
			<path class="st71" d="M1095.6,438.8h6.2v10h-6.2V438.8z"/>
		</g>
	</g>
	<g class="st69">
		<path class="st73" d="M813.7,300.5l6.5-7l-8.9,1.7"/>
		<path class="st73" d="M789.7,302.1c0,7.1,6.1,12.8,13.6,12.8c7.5,0,13.6-5.8,13.6-12.8c0-7.1-6.1-12.8-13.6-12.8
			S789.7,295,789.7,302.1L789.7,302.1z"/>
		<g>
			<path class="st71" d="M800.7,308.3c2.7,0,5.4,0.1,7.9-0.1c0.8-0.1,1.5-1.4,0.5-1.8c0.4-0.2,0.8-0.5,1-0.9c0.2-0.5,0-1-0.5-1.2
				c0.9,0.2,1.3-1.3,0.6-1.8c0.4-0.3,0.7-0.8,0.8-1.3c0.1-0.5-0.1-1.1-0.6-1.4c-0.3-0.1-0.6-0.2-1-0.2l-3.3,0
				c0.4-1.8,0.3-3.7-0.5-5.4c-0.3-0.5-1-1.1-1.6-0.7c-0.5,0.3-0.4,1.2-0.4,1.8c0.1,2.3-1.1,4.4-3,5.6
				C800.6,301,800.7,305.8,800.7,308.3L800.7,308.3z"/>
			<path class="st71" d="M795.7,301h4.1v7.3h-4.1V301z"/>
		</g>
	</g>
	<g transform="translate(841.305 173.948)" class="st69">
		<path class="st19" d="M35.8,32.6c6.9-8.7,5.5-21.3-3.2-28.2S11.3-1,4.4,7.7C-2.5,16.3-1,28.9,7.6,35.8c6.8,5.4,16.3,5.8,23.6,1
			L39,41L35.8,32.6z"/>
		<path class="st23" d="M11.6,14.6c1.9-1.9,5-1.9,6.9,0.1c0,0,0,0,0,0l1.3,1.3l1.3-1.3c1.9-1.9,5-1.9,6.9,0.1s1.9,5-0.1,6.9l0,0
			l-4.8,4.7l0,0c-1.9,1.9-5,1.9-6.9-0.1l-4.7-4.8C9.6,19.6,9.7,16.5,11.6,14.6C11.6,14.6,11.6,14.6,11.6,14.6z"/>
	</g>
</g>
</svg>
