<?xml version="1.0" encoding="utf-8"?>
<!-- Generator: Adobe Illustrator 24.0.0, SVG Export Plug-In . SVG Version: 6.00 Build 0)  -->
<svg version="1.1" id="Camada_1" xmlns="http://www.w3.org/2000/svg" xmlns:xlink="http://www.w3.org/1999/xlink" x="0px" y="0px"
	 viewBox="0 0 838.5 504.8" style="enable-background:new 0 0 838.5 504.8;" xml:space="preserve">
<style type="text/css">
	.st0{fill:#666699;}
	.st1{fill:#233499;}
	.st2{fill:#FE4777;}
	.st3{fill:none;stroke:#FFFFFF;stroke-width:1.87;stroke-linecap:round;stroke-linejoin:round;}
	.st4{fill:#6F7DE0;}
	.st5{fill:none;stroke:#FFFFFF;stroke-width:0.702;stroke-miterlimit:10;}
	.st6{fill:#EA5573;}
	.st7{fill:#FFFFFF;}
	.st8{fill:#111E93;}
	.st9{fill:#A06A52;}
	.st10{fill:#E0AA96;}
	.st11{fill:none;stroke:#A06A52;stroke-width:1.064;stroke-linecap:round;stroke-linejoin:round;}
	.st12{fill:#507AA0;}
	.st13{fill:none;stroke:#2C597C;stroke-miterlimit:10;}
	.st14{fill:#CCCCCC;}
	.st15{fill:#333399;}
	.st16{fill:#989898;}
	.st17{fill:none;stroke:#0C0B0C;stroke-width:1.277;stroke-linecap:round;stroke-linejoin:round;}
	.st18{fill:#4040EB;}
	.st19{fill:#845441;}
	.st20{fill:#F7DE9E;}
	.st21{fill:none;stroke:#20181F;stroke-width:1.277;stroke-linecap:round;stroke-linejoin:round;}
	.st22{fill:#F7F7F7;}
	.st23{fill:#0C0B0C;}
</style>
<path class="st0" d="M96.8,361.7c0,0,109.1,226.2,465.7,109.4s170.5-336.3,10.1-257s-305-20.1-305-20.1s-97.6-57.2-165.1,24
	C102.5,218,53,270.9,96.8,361.7L96.8,361.7z"/>
<path class="st0" d="M306,134.3c0,0-9.5,69.2,120.5,68.6s186-97.5,142.7-121.6c-37.9-21.1-85.6,14.8-138.6-1.3
	C362.6,59.2,304.3,92.3,306,134.3z"/>
<path class="st1" d="M241.7,70.5H114.1c-2.6,0-4.8-2.1-4.8-4.8c0-2.6,2.1-4.8,4.8-4.8h127.6c2.6,0,4.8,2.1,4.8,4.8
	C246.5,68.4,244.3,70.5,241.7,70.5z"/>
<path class="st2" d="M829.5,435.6h-38.8c-2.6,0-4.8-2.1-4.8-4.8l0,0c0-2.6,2.1-4.8,4.8-4.8l0,0h38.8c2.6,0,4.8,2.1,4.8,4.8l0,0
	C834.3,433.5,832.1,435.6,829.5,435.6L829.5,435.6z"/>
<path class="st2" d="M434.7,6.3h11.4c0.9,0,1.7,0.8,1.7,1.7v10.9c0,0.9-0.8,1.7-1.7,1.7h-11.4c-0.9,0-1.7-0.8-1.7-1.7V8
	C433,7.1,433.7,6.3,434.7,6.3z"/>
<path class="st2" d="M75.7,453.3h11.4c0.9,0,1.7,0.8,1.7,1.7v10.9c0,0.9-0.8,1.7-1.7,1.7H75.7c-0.9,0-1.7-0.8-1.7-1.7V455
	C74,454.1,74.8,453.3,75.7,453.3z"/>
<g>
	<path class="st3" d="M837.6,312.9c-0.1,5.6-4.6,10-10.2,9.9c-5.6-0.1-10-4.6-9.9-10.2c0.1-5.5,4.6-9.9,10.1-9.9
		C833.1,302.7,837.6,307.3,837.6,312.9z"/>
	<path class="st3" d="M21.7,256.8c-0.1,5.7-4.8,10.3-10.5,10.2S0.9,262.2,1,256.5c0.1-5.7,4.7-10.2,10.4-10.2S21.8,251,21.7,256.8
		L21.7,256.8z"/>
	<path class="st3" d="M732.6,73.3h53"/>
	<path class="st3" d="M38.4,397.4h117"/>
</g>
<g transform="translate(649.285 160.451)">
	<path class="st4" d="M1.8,0h129.5c1,0,1.8,0.8,1.8,1.8V38c0,1-0.8,1.8-1.8,1.8H1.8C0.8,39.8,0,39,0,38V1.8C0,0.8,0.8,0,1.8,0z"/>
	<path class="st5" d="M18.2,13.7h89.1"/>
	<path class="st5" d="M18.2,24.4h31.2"/>
	<path class="st4" d="M14.6,35.5v14.9l18.8-14.9H14.6z"/>
</g>
<path class="st6" d="M64.4,128h92.9c2.7,0,4.9,2.2,4.9,4.9v87.4c0,2.7-2.2,4.9-4.9,4.9H66c-3.6,0-6.5-2.9-6.5-6.5l0,0V133
	C59.5,130.2,61.7,128,64.4,128L64.4,128z"/>
<path class="st7" d="M134.3,184.6l-6.1-6.1c-1-1.1-2.4-1.8-3.9-1.9c-1.5,0-2.9,0.7-3.9,1.7l-3.5,3.5l-0.7-0.3
	c-0.4-0.2-0.7-0.3-1.1-0.5c-3.4-2.2-6.5-5-9-8.3c-1.1-1.4-2.1-2.9-2.8-4.5c0.9-0.8,1.6-1.6,2.4-2.4c0.3-0.3,0.7-0.7,1-1
	c2.2-1.9,2.5-5.3,0.6-7.5c-0.2-0.2-0.4-0.4-0.6-0.6l-3-3.1c-0.4-0.3-0.7-0.7-1-1.1l-2.1-2.1c-1-1.1-2.4-1.7-3.9-1.7
	s-2.9,0.6-3.9,1.7l-3.8,3.8c-1.4,1.4-2.3,3.3-2.5,5.3c-0.1,2.8,0.4,5.7,1.4,8.3c1.9,5.2,4.8,10.1,8.5,14.3
	c4.8,5.7,10.7,10.4,17.4,13.6c3.1,1.6,6.4,2.6,9.8,2.9h0.8c2.5,0,4.9-1,6.5-2.8l0.1-0.1c0.6-0.7,1.3-1.4,2-2l1.4-1.4
	c2.2-2.1,2.3-5.5,0.2-7.7C134.5,184.8,134.4,184.7,134.3,184.6L134.3,184.6z M131.8,190.3l-1.3,1.3c-0.8,0.7-1.4,1.4-2.2,2.2
	c-1,1.1-2.4,1.7-3.9,1.6h-0.5c-3-0.3-5.9-1.2-8.5-2.6c-6.2-3.1-11.8-7.4-16.2-12.7c-3.4-3.9-6-8.4-8-13.2c-1-2.1-1.5-4.4-1.3-6.8
	c0.1-1.2,0.6-2.3,1.5-3.2l3.7-3.7c0.4-0.4,0.9-0.7,1.5-0.8c0.6,0,1.1,0.3,1.5,0.8l2,2c0.3,0.4,0.7,0.8,1.1,1.1l3.1,3.1
	c0.4,0.4,0.7,0.9,0.8,1.5c0,0.6-0.3,1.1-0.8,1.5c-0.3,0.3-0.7,0.7-1,1c-1,1-1.9,1.9-2.7,2.7l-0.1,0.1c-0.8,0.7-1,1.8-0.7,2.7v0.1
	c0.9,2.1,2.1,4.1,3.6,5.9c2.8,3.5,6.1,6.6,9.9,9c0.4,0.3,0.9,0.6,1.4,0.8c0.4,0.2,0.7,0.3,1.1,0.5l0.1,0.1c1,0.5,2.3,0.3,3.1-0.5
	l3.8-3.8c0.6-0.8,1.7-1,2.5-0.4c0.2,0.1,0.3,0.3,0.4,0.4l6.1,6.1c0.9,0.7,1,2,0.2,2.9C132,190.1,131.9,190.2,131.8,190.3
	L131.8,190.3z"/>
<path class="st6" d="M547.1,0h85.3c2.5,0,4.5,2,4.5,4.5l0,0v80.2c0,2.5-2,4.5-4.5,4.5l0,0h-83.8c-3.3,0-6-2.7-6-6l0,0V4.5
	C542.5,2,544.6,0,547.1,0L547.1,0z"/>
<path class="st7" d="M600.8,37.3c0-6.3-5.1-11.5-11.5-11.5s-11.5,5.1-11.5,11.5s5.1,11.5,11.5,11.5l0,0
	C595.6,48.8,600.8,43.7,600.8,37.3z M580.7,37.3c0-4.7,3.8-8.6,8.6-8.6c4.7,0,8.6,3.8,8.6,8.6c0,4.7-3.8,8.6-8.6,8.6l0,0
	C584.5,45.9,580.7,42.1,580.7,37.3z"/>
<path class="st7" d="M588.1,71.1c0.5,0.6,1.4,0.8,2,0.3c0.1-0.1,0.2-0.2,0.3-0.3c0.1-0.2,0.7-0.9,1.5-2.1l8.5-13.1
	c3.9-6.7,7.5-14.1,7.5-18.6c0-10.3-8.3-18.6-18.6-18.6s-18.6,8.3-18.6,18.6c0,4.4,3.4,11.5,7.2,18l8.8,13.7
	C587.5,70.2,588,71,588.1,71.1z M589.3,21.6c8.7,0,15.8,7.1,15.8,15.8l0,0c0,6.9-10.5,23-15.8,30.5c-5.3-7.4-15.8-23.6-15.8-30.5
	C573.5,28.6,580.6,21.6,589.3,21.6L589.3,21.6z"/>
<path class="st8" d="M393.8,504.2c-0.8-2.3-39.7-182.7-51.5-237.3c-2-9.5-9.7-16.8-19.4-18.4c-28.4-4.5-90.2-11-150.8,5.1
	c-12.4,3.3-26.2,21-20.5,42.6l51.7,208L393.8,504.2L393.8,504.2z"/>
<path class="st1" d="M403.8,503c-0.8-2.3-40-184.1-51.8-238.7c-2-9.5-9.7-16.8-19.4-18.4c-28.4-4.5-90.2-11-150.8,5.1
	c-12.4,3.4-19.9,16-16.8,28.5L219.3,503H403.8z"/>
<path d="M368.4,185.8c0,0-39.7,3.3-52.1,33.6s0,37.8-18.5,49s-59.1,41.9-19.4,102.6l207.3-20c-0.8-0.9,38.7-72.6-30.3-120.9
	L368.4,185.8z"/>
<g>
	<path class="st9" d="M575,279.8l-12.8,39.7l35.6,8.7l11.5-38.5L575,279.8z"/>
	<path class="st10" d="M573,290c0,0,25.3,16.9,32.5,12c12.4-8.6,24.7-42.4,24.7-42.4s-48.1-22.2-47.7-21.5S573,290,573,290z"/>
	<path class="st10" d="M573,290c-5.2-3.9-7.5-14-10.3-43.1c-0.4-2.7,1.4-5.3,4.2-5.7l0,0c1.9-0.2,4.8,0.2,5.9,3l10.9,22.1L573,290z"
		/>
	<path class="st10" d="M576.2,259l11.6-41.7c0.8-2.8,3.6-4.5,6.5-3.8c2.4,0.6,3.9,3,3.4,5.4l-6,31.3L576.2,259z"/>
	<path class="st10" d="M594.3,244.6l13.8-29.4c1.2-2.6,4.2-3.8,6.8-2.8c2.2,0.9,3.4,3.4,2.6,5.6l-11.1,34.3L594.3,244.6z"/>
	<path class="st10" d="M606.1,254.5l16.8-28.7c1.5-2.7,4.9-3.7,7.6-2.3c2.5,1.3,3.4,4.4,2.1,6.9l0,0l-13.7,27.2L606.1,254.5z"/>
	<path class="st10" d="M630.2,259.5l12.8-17.4c1.1-2,0.4-4.5-1.6-5.6l0,0c-2-1-4.5-0.5-5.9,1.3l-16.6,19.8L630.2,259.5z"/>
</g>
<path class="st11" d="M578.8,256c0,0,17.4-0.6,17.5,22.6"/>
<path class="st12" d="M444.7,303.4c25.3,15.1,80,72.4,80,72.4l35.2-77.2l59.1,10.9c0,0-39.2,101.6-58.7,133.7
	c-10.2,16.7-29.5,27-52,15.2l-63-38.4L444.7,303.4z"/>
<path class="st12" d="M391.2,288c0,0-79.6,5.9-93.7,58.7c-14.1,52.7-11.9,156.7-11.9,156.7h190.9l-5.9-159.7
	C470.6,343.7,466.4,291,391.2,288L391.2,288z"/>
<path class="st13" d="M474.1,437.6l-5.1-71.1"/>
<path class="st14" d="M500.1,503.7l77-142.1c1.2-2.2,3.6-3.6,6.1-3.6h181.9c2.9,0,5.2,2.3,5.2,5.2c0,0.8-0.2,1.6-0.6,2.3
	l-69.9,138.2H500.1z"/>
<path class="st15" d="M380.4,486.4h144v17.3h-144L380.4,486.4z"/>
<path class="st16" d="M661.9,433.9c0,8.4-6.8,15.3-15.3,15.3s-15.3-6.8-15.3-15.3s6.8-15.3,15.3-15.3l0,0
	C655,418.7,661.9,425.5,661.9,433.9z"/>
<path class="st17" d="M500.1,503.7l76.6-141.3c1.5-2.7,4.3-4.4,7.4-4.4h95.5"/>
<path class="st18" d="M417.4,211.8c-0.5,14.1,10.7,25.9,28.6,26.6c12.6,0.4,16.7-10.9,17.2-25s-9.4-25.9-22-26.3
	S417.9,197.7,417.4,211.8L417.4,211.8z"/>
<path class="st8" d="M424,212.1c-0.5,14.1,9.4,25.9,22,26.3s23.3-10.6,23.8-24.7s-9.4-25.9-22-26.3S424.5,198,424,212.1L424,212.1z"
	/>
<path d="M400.3,145.3c2.3-4-0.6-11.5-0.6-11.5c-22.5,0-41.9,7.2-53,27.7c-16.4,30.2-4.5,76.9,34.2,91.1
	C418,266.2,398.2,149,398.2,149L400.3,145.3z"/>
<path class="st9" d="M421.5,260.2l-2.5,36.4c-0.8,13.7-9.8,20.5-23.3,19.6c-11.5-0.8-21.9-7.5-22.6-19l3.3-58.6L421.5,260.2z"/>
<path class="st19" d="M420.1,281.7c0,0-26.7-4.4-43.8-37.3l45.5,11.4L420.1,281.7z"/>
<path class="st9" d="M407.2,266c23.1,0.9,41.9-16.5,42.6-35.4l1.4-44.5c0.9-23.6-17.2-43.7-40.8-45.3c-17.7-1.2-49.9,25.1-51,40.4
	l-0.7,35.8C358.2,244.7,384.6,265.2,407.2,266L407.2,266z"/>
<path class="st20" d="M399.5,133.9c0.1,0,0.2,0,0.3-0.1L399.5,133.9z"/>
<path class="st9" d="M339.7,210.8c-0.7,9.9,6.8,18.5,16.7,19.2c9.9,0.7,18.5-6.8,19.2-16.7s-6.8-18.5-16.7-19.2l0,0
	C349,193.5,340.4,200.9,339.7,210.8L339.7,210.8z"/>
<path class="st21" d="M363.6,217.8c0,0,0.9-13-11.7-11.8"/>
<path class="st17" d="M427.3,222.6l1.4,11.7l-6.1,0.2"/>
<path d="M402.1,198.7c0,0,12.1-1.6,11.9,2.7c0,0-0.2,2.9-10.8,4.2s-13.2,0.7-14-2S396.4,199.1,402.1,198.7L402.1,198.7z"/>
<path d="M441.1,199c0,0-9.6-1.4-10.1,2.6c0,0-0.3,2.7,8.1,3.8s11.1,0.3,11.7-1.9C451.5,201,445.6,199.3,441.1,199L441.1,199z"/>
<path d="M399.9,216.5c-0.1,2.2,1.6,4,3.8,4s4-1.6,4-3.8s-1.6-4-3.8-4l0,0C401.8,212.6,400,214.3,399.9,216.5L399.9,216.5z"/>
<path d="M435.8,216.5c-0.1,2.1,1.6,3.9,3.8,4c2.1,0.1,3.9-1.6,4-3.8s-1.6-3.9-3.8-4l0,0C437.7,212.6,435.9,214.3,435.8,216.5
	L435.8,216.5z"/>
<path class="st22" d="M405,241.4h24.9c0,0-1.2,8.6-14.2,8C410.7,249.3,406.4,246.1,405,241.4L405,241.4z"/>
<path d="M358.9,194.1c0,0,36.3,12.8,61.8-35.3c0,0,27.7,5.9,33.1,28.6c0,0,14.5-55.4-55.8-55.4l-40.3,24.4L358.9,194.1z"/>
<path class="st9" d="M380.6,311.1l33.9,21.5c0,0,3.7-23.6,4.4-36L380.6,311.1z"/>
<path class="st8" d="M428.6,136.7l0.1,2.4c0,0-29-2.1-45.2,12.8c-18,16.7-22.9,42.7-22.9,42.7l-6.3-0.6l7.9-41.2l14.7-10.6l21.8-8.2
	l14.6-1.9L428.6,136.7z"/>
<path class="st8" d="M375,212.8c0.5,14.1-10.7,25.9-28.6,26.6c-12.6,0.4-16.7-10.9-17.2-25s9.4-25.9,22-26.3S374.5,198.7,375,212.8
	L375,212.8z"/>
<ellipse transform="matrix(0.9994 -3.501309e-02 3.501309e-02 0.9994 -7.2741 12.2283)" class="st1" cx="345.5" cy="213.8" rx="22.9" ry="25.5"/>
<path class="st1" d="M345.7,191.4c0.6-10.8,2.9-21.4,6.9-31.4c8.3-20,27.7-31.9,49.4-32c1.7,0,3.4,0,5.2,0.1
	c6.3,0.3,12.8,1.7,17.9,5.4c1.3,0.9,2.4,2,3.5,3.1c0,0-27.9-3.9-43.9,8.6c-18,14-26,35.7-27.8,50.8L345.7,191.4z"/>
<path class="st17" d="M364.7,231.8c5.7,6.3,14.1,9.4,22.5,8.1"/>
<path class="st23" d="M390.8,239.3c0,1.4-1.2,2.6-2.6,2.6s-2.6-1.2-2.6-2.6c0-1.4,1.2-2.6,2.6-2.6S390.8,237.9,390.8,239.3
	L390.8,239.3z"/>
<path class="st9" d="M415.1,477.9l-36.9-5.1l1,30.9h28.5L415.1,477.9z"/>
<path class="st9" d="M410.8,477.4c-1.1-0.5,79.3-34.3,73.3,26.2h-80.7L410.8,477.4z"/>
<path class="st12" d="M269.3,449.4l118.5,3.6l-2.2,51.2l-123.2-0.8c-14.9-2-25.4-15.7-23.4-30.6c0.3-2.2,0.9-4.3,1.7-6.4
	C245.2,454.9,257,447.9,269.3,449.4L269.3,449.4z"/>
<path class="st13" d="M385.6,473.3l2.2-20.4l-68.1-2.2l33.2-67.5"/>
<path class="st13" d="M321.8,450.7l-36-0.4"/>
<path class="st12" d="M361.3,353.5c0,0-30.2,75.9-73.4,137.1c-4.9,6.9-18.3,10.3-26.7,9.9c-18.9-0.8-27-21.2-19.8-37.8
	c0,0,34.8-109.4,74.2-145C316.5,316.7,361.3,353.5,361.3,353.5L361.3,353.5z"/>
<path class="st17" d="M789.3,504.2h-648"/>
<path class="st17" d="M103.7,504.2H25.5"/>
</svg>
