<?xml version="1.0" encoding="utf-8"?>
<!-- Generator: Adobe Illustrator 24.0.0, SVG Export Plug-In . SVG Version: 6.00 Build 0)  -->
<svg version="1.1" id="Camada_1" xmlns="http://www.w3.org/2000/svg" xmlns:xlink="http://www.w3.org/1999/xlink" x="0px" y="0px"
	 viewBox="0 0 880.2 576.3" style="enable-background:new 0 0 880.2 576.3;" xml:space="preserve">
<style type="text/css">
	.st0{fill:#EA5573;}
	.st1{fill:#E6E6E6;}
	.st2{fill:#F2F2F2;}
	.st3{fill:#3F3D56;}
	.st4{fill:#2F2E41;}
	.st5{fill:#111E93;}
	.st6{opacity:0.2;enable-background:new    ;}
	.st7{fill:#FFB6B6;}
	.st8{fill:#A0616A;}
</style>
<circle class="st0" cx="435.6" cy="71.3" r="26.7"/>
<path class="st1" d="M495.3,58.6c-1.5-5-5.9-8.7-11.2-9.3c-0.1,0-0.1,0-0.2,0c-0.1,0-0.1,0-0.2-0.1c-8.9-1.2-18.9,1.7-25.6,7.8
	c-2.5,2.2-4.5,5-5.8,8c-2.5-3.4-6.6-5.4-10.8-5.3c-5.5,0.4-10.3,4.2-11.8,9.5c-0.2,0.7,0.1,1.3,0.7,1.7c0.8,0.7,1.8,1.2,2.8,1.4
	c2.2,0.5,4.4,0.9,6.7,1.3c4.4,0.8,8.7,1.4,13.2,1.9c2.9,0.3,5.8,0.6,8.8,0.7c6,0.4,12.1,0.5,18.2,0.3c3-0.1,5.9-0.2,8.6-1.5
	c2-1,3.7-2.5,5-4.3C495.9,67.2,496.5,62.7,495.3,58.6z"/>
<path class="st1" d="M440.4,97.5c-0.1-1.1-0.2-2.2-0.6-3.3c-1.5-5-5.9-8.7-11.2-9.3c-0.1,0-0.1,0-0.2,0c-0.1,0-0.2,0-0.2-0.1
	c-4.9-0.6-10-0.1-14.7,1.5c-7.3,2.4-13.6,7.3-16.7,14.3c-2.5-3.4-6.6-5.4-10.8-5.3c-5.5,0.4-10.3,4.2-11.8,9.5
	c-0.2,0.7,0.1,1.3,0.7,1.7c0.8,0.7,1.8,1.2,2.8,1.4c2.2,0.5,4.4,0.9,6.7,1.3c4.4,0.8,8.7,1.4,13.1,1.9c8.9,1,17.9,1.3,26.9,1
	c3-0.1,5.9-0.2,8.6-1.5c2-1,3.7-2.5,4.9-4.3C439.7,103.8,440.6,100.7,440.4,97.5z"/>
<path class="st2" d="M788.1,421.5c0.4,18.2-2.1,36.4-7.4,53.8c-0.2,0.6-0.4,1.3-0.6,1.9H670.5c1.6-7.7,4.1-15.2,7.4-22.3
	c9.1-19.4,24-35.9,38.7-52.4c20.2-22.7,40-45.1,43.1-74.6c8,12.2,14.4,25.5,19.1,39.3c-5.7,2.1-10.9,5.3-15.3,9.4
	c-1.2,1.2-2.5,2.8-1.9,4.4c0.6,1.3,2.2,1.8,3.7,2.1c3.5,0.7,7,1.3,10.5,2c2.8,0.6,5.5,1.1,8.3,1.6
	C786.6,398.1,787.9,409.8,788.1,421.5z"/>
<path class="st2" d="M880.2,409.5c-17.6,10.7-28.7,27.2-37.8,45.7c-7.9,1.8-15.3,5.7-21.2,11.2c-1.3,1.2-2.6,2.8-1.9,4.4
	c0.6,1.3,2.2,1.8,3.7,2.1c3.5,0.7,7,1.3,10.5,2c-0.3,0.8-0.7,1.6-1,2.4H716.2c5.3-7.1,11.1-13.8,17.5-19.9c1.4-1.4,2.8-2.7,4.2-4
	c14.8-13.4,31.8-24.1,50.2-31.7C817.2,409.4,849,405.2,880.2,409.5z"/>
<path class="st2" d="M735.6,477.2H632.2c-0.6-8.3-0.5-16.6,0.1-24.9c4.1-51.1,31.9-99.8,73.9-129.2c-5.4,19.1-2.6,38.1,3,57.1
	c-0.8,0.3-1.6,0.5-2.3,0.8c-5.7,2.1-10.9,5.3-15.3,9.4c-1.2,1.2-2.5,2.8-1.9,4.4c0.6,1.3,2.2,1.8,3.7,2.1c3.5,0.7,7,1.3,10.5,2
	c2.8,0.6,5.6,1.1,8.4,1.6c1.3,0.2,2.6,0.5,3.9,0.7c0.2,0.4,0.3,0.9,0.5,1.3c6.5,18,13.7,36.2,17,54.7c0.8,4.6,1.4,9.3,1.7,14
	C735.5,473.2,735.6,475.2,735.6,477.2z"/>
<path class="st2" d="M172.1,421.5c0.4,18.2-2.1,36.4-7.4,53.8c-0.2,0.6-0.4,1.3-0.6,1.9H54.5c1.6-7.7,4.1-15.2,7.4-22.3
	c9.1-19.4,24-35.9,38.7-52.4c20.2-22.7,40-45.1,43.1-74.6c8,12.2,14.4,25.5,19.1,39.3c-5.7,2.1-10.9,5.3-15.3,9.4
	c-1.2,1.2-2.5,2.8-1.9,4.4c0.6,1.3,2.2,1.8,3.7,2.1c3.5,0.7,7,1.3,10.5,2c2.8,0.6,5.5,1.1,8.3,1.6
	C170.6,398.1,171.9,409.8,172.1,421.5z"/>
<path class="st2" d="M264.2,409.5c-17.6,10.7-28.7,27.2-37.8,45.7c-7.9,1.8-15.3,5.7-21.2,11.2c-1.3,1.2-2.6,2.8-1.9,4.4
	c0.6,1.3,2.2,1.8,3.7,2.1c3.5,0.7,7,1.3,10.5,2c-0.3,0.8-0.7,1.6-1,2.4H100.2c5.3-7.1,11.1-13.8,17.5-19.9c1.4-1.4,2.8-2.7,4.2-4
	c14.8-13.4,31.8-24.1,50.2-31.7C201.2,409.4,233,405.2,264.2,409.5z"/>
<path class="st2" d="M119.6,477.2H16.2c-0.6-8.3-0.5-16.6,0.1-24.9c4.1-51.1,31.9-99.8,73.9-129.2c-5.4,19.1-2.6,38.1,3,57.1
	c-0.8,0.3-1.6,0.5-2.3,0.8c-5.7,2.1-10.9,5.3-15.3,9.4c-1.2,1.2-2.5,2.8-1.9,4.4c0.6,1.3,2.2,1.8,3.7,2.1c3.5,0.7,7,1.3,10.5,2
	c2.8,0.6,5.6,1.1,8.4,1.6c1.3,0.2,2.6,0.5,3.9,0.7c0.2,0.4,0.3,0.9,0.5,1.3c6.5,18,13.7,36.2,17,54.7c0.8,4.6,1.4,9.3,1.7,14
	C119.5,473.2,119.6,475.2,119.6,477.2z"/>
<path class="st1" d="M504.4,433.8l92.4,8.2l1,0.1V47.9c-0.3-0.2-0.7-0.5-1-0.7c-19.3-13.5-40.1-24.5-62-32.9L530,79.4l-0.4,6
	l-4.7,64.6l-1.4,19.9l-18.9,261.7L504.4,433.8z"/>
<path class="st1" d="M276,40.6c-0.7,0.4-1.3,0.8-2,1.3v400.2l2-0.2l91.4-8.1l-0.2-2.3l-18.9-261.7l-1.4-19.9l-4.7-64.6l-0.4-6
	l-5-68.3C315.4,18.5,295,28.4,276,40.6z"/>
<path class="st1" d="M274,41.9c-1.3,0.9-2.7,1.7-4,2.6v403c0,10.1,6,18.5,14,20.7c1.3,0.4,2.6,0.5,4,0.5h296.8c1.3,0,2.7-0.2,4-0.5
	c3-0.8,5.7-2.4,7.8-4.7c4.1-4.3,6.3-10.1,6.2-16v-396c-1.6-1.2-3.3-2.4-5-3.6c-0.3-0.2-0.7-0.5-1-0.7v400.3c0,1.3-0.2,2.6-0.5,3.8
	c-1.4,6-6.1,10.3-11.5,10.3H288c-6.6,0-12-6.3-12-14.2V40.6C275.3,41,274.7,41.4,274,41.9z"/>
<rect x="273" y="79.4" class="st1" width="326.8" height="6"/>
<path class="st1" d="M499.7,3.4c-2-0.5-4-0.9-6-1.4v161.8h6V3.4z"/>
<path class="st1" d="M379,0c-2,0.4-4,0.8-6,1.2v162.7h6V0z"/>
<path class="st1" d="M208.9,458.3c0,3.4,0.7,6.8,1.9,10c0.5,1.2,1.1,2.4,1.8,3.6c0.9,1.5,1.9,2.9,3,4.2c5.1,5.8,12.4,9.1,20.1,9.1
	h391.3c14.8,0,26.8-12,26.8-26.8s-12-26.8-26.8-26.8H235.8C221,431.5,209,443.5,208.9,458.3z"/>
<rect x="273" y="149.9" class="st1" width="324.8" height="19.9"/>
<path class="st1" d="M449.3,154.9h-27.8l0,0l0,0c0-6,4.9-10.9,10.9-10.9h6C444.4,144,449.3,148.9,449.3,154.9
	C449.3,154.9,449.3,154.9,449.3,154.9L449.3,154.9L449.3,154.9z"/>
<path class="st3" d="M0,473.6c8.7,10.3,18.1,20,28.1,29h806.6c10-9,19.4-18.7,28.1-29H0z"/>
<path class="st4" d="M396.7,376.8v102.6h71.8V376.8c0-1.5-1-2.9-2.4-3.3c-0.3-0.1-0.7-0.2-1-0.2h-64.9
	C398.2,373.3,396.7,374.9,396.7,376.8C396.7,376.8,396.7,376.8,396.7,376.8z M424.7,412c0-4.2,3.5-7.6,7.7-7.6
	c4.2,0,7.6,3.4,7.6,7.6v11.9c0,4.2-3.5,7.7-7.7,7.6c-4.2,0-7.6-3.4-7.6-7.6V412z"/>
<path class="st3" d="M396.5,476.1v9.9c0,1.1,0.9,1.9,1.9,1.9h68.4c1.1,0,1.9-0.9,1.9-1.9v-9.9H396.5z"/>
<path class="st3" d="M283.7,222.3v187.3c0,5,4,9,9,9h277.5c5,0,9-4,9-9V222.3c0-5-4-9-9-9H292.7
	C287.7,213.3,283.7,217.3,283.7,222.3z"/>
<path class="st5" d="M290.2,224.6v182.6c0,2.7,2.2,4.8,4.8,4.8h272.9c2.7,0,4.8-2.2,4.8-4.8V224.6c0-2.7-2.2-4.8-4.8-4.8H295
	C292.3,219.8,290.2,222,290.2,224.6z"/>
<path class="st4" d="M345.8,490.2c0.6,0.7,1.4,1.1,2.3,1.1h162.3c1.6,0,3-1.3,3-3c0-0.2,0-0.4-0.1-0.6l-2.5-12
	c-0.2-1-0.9-1.8-1.9-2.2c-0.3-0.1-0.7-0.2-1.1-0.2H350.6c-0.4,0-0.7,0.1-1.1,0.2c-0.9,0.4-1.6,1.2-1.9,2.2l-2.5,12
	C345,488.6,345.2,489.5,345.8,490.2z"/>
<path class="st3" d="M506.3,478.6h-4c-0.3,0-0.5-0.2-0.5-0.5v-2c0-0.3,0.2-0.5,0.5-0.5h4c0.3,0,0.5,0.2,0.5,0.5v2
	C506.8,478.3,506.6,478.6,506.3,478.6z"/>
<path class="st3" d="M496.3,478.6h-4c-0.3,0-0.5-0.2-0.5-0.5v-2c0-0.3,0.2-0.5,0.5-0.5h4c0.3,0,0.5,0.2,0.5,0.5v2
	C496.8,478.3,496.6,478.6,496.3,478.6z"/>
<path class="st3" d="M486.3,478.6h-4c-0.3,0-0.5-0.2-0.5-0.5v-2c0-0.3,0.2-0.5,0.5-0.5h4c0.3,0,0.5,0.2,0.5,0.5v2
	C486.8,478.3,486.6,478.6,486.3,478.6z"/>
<path class="st3" d="M476.3,478.6h-4c-0.3,0-0.5-0.2-0.5-0.5v-2c0-0.3,0.2-0.5,0.5-0.5h4c0.3,0,0.5,0.2,0.5,0.5v2
	C476.8,478.3,476.6,478.6,476.3,478.6z"/>
<path class="st3" d="M466.3,478.6h-4c-0.3,0-0.5-0.2-0.5-0.5v-2c0-0.3,0.2-0.5,0.5-0.5h4c0.3,0,0.5,0.2,0.5,0.5v2
	C466.8,478.3,466.6,478.6,466.3,478.6z"/>
<path class="st3" d="M456.3,478.6h-4c-0.3,0-0.5-0.2-0.5-0.5v-2c0-0.3,0.2-0.5,0.5-0.5h4c0.3,0,0.5,0.2,0.5,0.5v2
	C456.8,478.3,456.6,478.6,456.3,478.6z"/>
<path class="st3" d="M446.3,478.6h-4c-0.3,0-0.5-0.2-0.5-0.5v-2c0-0.3,0.2-0.5,0.5-0.5h4c0.3,0,0.5,0.2,0.5,0.5v2
	C446.8,478.3,446.6,478.6,446.3,478.6z"/>
<path class="st3" d="M436.3,478.6h-4c-0.3,0-0.5-0.2-0.5-0.5v-2c0-0.3,0.2-0.5,0.5-0.5h4c0.3,0,0.5,0.2,0.5,0.5v2
	C436.8,478.3,436.6,478.6,436.3,478.6z"/>
<path class="st3" d="M426.3,478.6h-4c-0.3,0-0.5-0.2-0.5-0.5v-2c0-0.3,0.2-0.5,0.5-0.5h4c0.3,0,0.5,0.2,0.5,0.5v2
	C426.8,478.3,426.6,478.6,426.3,478.6z"/>
<path class="st3" d="M416.3,478.6h-4c-0.3,0-0.5-0.2-0.5-0.5v-2c0-0.3,0.2-0.5,0.5-0.5h4c0.3,0,0.5,0.2,0.5,0.5v2
	C416.8,478.3,416.6,478.6,416.3,478.6z"/>
<path class="st3" d="M406.3,478.6h-4c-0.3,0-0.5-0.2-0.5-0.5v-2c0-0.3,0.2-0.5,0.5-0.5h4c0.3,0,0.5,0.2,0.5,0.5v2
	C406.8,478.3,406.6,478.6,406.3,478.6z"/>
<path class="st3" d="M396.3,478.6h-4c-0.3,0-0.5-0.2-0.5-0.5v-2c0-0.3,0.2-0.5,0.5-0.5h4c0.3,0,0.5,0.2,0.5,0.5v2
	C396.8,478.3,396.6,478.6,396.3,478.6z"/>
<path class="st3" d="M386.3,478.6h-4c-0.3,0-0.5-0.2-0.5-0.5v-2c0-0.3,0.2-0.5,0.5-0.5h4c0.3,0,0.5,0.2,0.5,0.5v2
	C386.8,478.3,386.6,478.6,386.3,478.6z"/>
<path class="st3" d="M376.3,478.6h-4c-0.3,0-0.5-0.2-0.5-0.5v-2c0-0.3,0.2-0.5,0.5-0.5h4c0.3,0,0.5,0.2,0.5,0.5v2
	C376.8,478.3,376.6,478.6,376.3,478.6z"/>
<path class="st3" d="M366.3,478.6h-4c-0.3,0-0.5-0.2-0.5-0.5v-2c0-0.3,0.2-0.5,0.5-0.5h4c0.3,0,0.5,0.2,0.5,0.5v2
	C366.8,478.3,366.6,478.6,366.3,478.6z"/>
<path class="st3" d="M356.3,478.6h-4c-0.3,0-0.5-0.2-0.5-0.5v-2c0-0.3,0.2-0.5,0.5-0.5h4c0.3,0,0.5,0.2,0.5,0.5v2
	C356.8,478.3,356.6,478.6,356.3,478.6z"/>
<path class="st3" d="M506.4,483.6h-4c-0.3,0-0.5-0.2-0.5-0.5v-2c0-0.3,0.2-0.5,0.5-0.5h4c0.3,0,0.5,0.2,0.5,0.5v2
	C506.9,483.3,506.7,483.6,506.4,483.6z"/>
<path class="st3" d="M496.4,483.6h-4c-0.3,0-0.5-0.2-0.5-0.5v-2c0-0.3,0.2-0.5,0.5-0.5h4c0.3,0,0.5,0.2,0.5,0.5v2
	C496.9,483.3,496.7,483.6,496.4,483.6z"/>
<path class="st3" d="M486.4,483.6h-4c-0.3,0-0.5-0.2-0.5-0.5v-2c0-0.3,0.2-0.5,0.5-0.5h4c0.3,0,0.5,0.2,0.5,0.5v2
	C486.9,483.3,486.7,483.6,486.4,483.6z"/>
<path class="st3" d="M476.4,483.6h-4c-0.3,0-0.5-0.2-0.5-0.5v-2c0-0.3,0.2-0.5,0.5-0.5h4c0.3,0,0.5,0.2,0.5,0.5v2
	C476.9,483.3,476.7,483.6,476.4,483.6z"/>
<path class="st3" d="M466.4,483.6h-4c-0.3,0-0.5-0.2-0.5-0.5v-2c0-0.3,0.2-0.5,0.5-0.5h4c0.3,0,0.5,0.2,0.5,0.5v2
	C466.9,483.3,466.7,483.6,466.4,483.6z"/>
<path class="st3" d="M456.4,483.6h-4c-0.3,0-0.5-0.2-0.5-0.5v-2c0-0.3,0.2-0.5,0.5-0.5h4c0.3,0,0.5,0.2,0.5,0.5v2
	C456.9,483.3,456.7,483.6,456.4,483.6z"/>
<path class="st3" d="M446.4,483.6h-4c-0.3,0-0.5-0.2-0.5-0.5v-2c0-0.3,0.2-0.5,0.5-0.5h4c0.3,0,0.5,0.2,0.5,0.5v2
	C446.9,483.3,446.7,483.6,446.4,483.6z"/>
<path class="st3" d="M436.4,483.6h-4c-0.3,0-0.5-0.2-0.5-0.5v-2c0-0.3,0.2-0.5,0.5-0.5h4c0.3,0,0.5,0.2,0.5,0.5v2
	C436.9,483.3,436.7,483.6,436.4,483.6z"/>
<path class="st3" d="M426.4,483.6h-4c-0.3,0-0.5-0.2-0.5-0.5v-2c0-0.3,0.2-0.5,0.5-0.5h4c0.3,0,0.5,0.2,0.5,0.5v2
	C426.9,483.3,426.7,483.6,426.4,483.6z"/>
<path class="st3" d="M416.4,483.6h-4c-0.3,0-0.5-0.2-0.5-0.5v-2c0-0.3,0.2-0.5,0.5-0.5h4c0.3,0,0.5,0.2,0.5,0.5v2
	C416.9,483.3,416.7,483.6,416.4,483.6z"/>
<path class="st3" d="M406.4,483.6h-4c-0.3,0-0.5-0.2-0.5-0.5v-2c0-0.3,0.2-0.5,0.5-0.5h4c0.3,0,0.5,0.2,0.5,0.5v2
	C406.9,483.3,406.7,483.6,406.4,483.6z"/>
<path class="st3" d="M396.4,483.6h-4c-0.3,0-0.5-0.2-0.5-0.5v-2c0-0.3,0.2-0.5,0.5-0.5h4c0.3,0,0.5,0.2,0.5,0.5v2
	C396.9,483.3,396.7,483.6,396.4,483.6z"/>
<path class="st3" d="M386.4,483.6h-4c-0.3,0-0.5-0.2-0.5-0.5v-2c0-0.3,0.2-0.5,0.5-0.5h4c0.3,0,0.5,0.2,0.5,0.5v2
	C386.9,483.3,386.7,483.6,386.4,483.6z"/>
<path class="st3" d="M376.4,483.6h-4c-0.3,0-0.5-0.2-0.5-0.5v-2c0-0.3,0.2-0.5,0.5-0.5h4c0.3,0,0.5,0.2,0.5,0.5v2
	C376.9,483.3,376.7,483.6,376.4,483.6z"/>
<path class="st3" d="M366.4,483.6h-4c-0.3,0-0.5-0.2-0.5-0.5v-2c0-0.3,0.2-0.5,0.5-0.5h4c0.3,0,0.5,0.2,0.5,0.5v2
	C366.9,483.3,366.7,483.6,366.4,483.6z"/>
<path class="st3" d="M356.4,483.6h-4c-0.3,0-0.5-0.2-0.5-0.5v-2c0-0.3,0.2-0.5,0.5-0.5h4c0.3,0,0.5,0.2,0.5,0.5v2
	C356.9,483.3,356.7,483.6,356.4,483.6z"/>
<path class="st3" d="M458.4,489.6h-39c-0.3,0-0.5-0.2-0.5-0.5v-2c0-0.3,0.2-0.5,0.5-0.5h39c0.3,0,0.5,0.2,0.5,0.5v2
	C458.9,489.3,458.7,489.6,458.4,489.6z"/>
<path class="st3" d="M308.7,244.9H564c0.6,0,1-0.5,1-1c0-0.5-0.4-1-1-1H308.7c-0.6,0-1,0.5-1,1C307.7,244.5,308.1,244.9,308.7,244.9
	z"/>
<ellipse class="st3" cx="546.6" cy="231.6" rx="6" ry="6.1"/>
<ellipse class="st3" cx="526.1" cy="231.6" rx="6" ry="6.1"/>
<ellipse class="st3" cx="505.5" cy="231.6" rx="6" ry="6.1"/>
<path class="st3" d="M320,228.2c0,0.6,0.5,1.1,1.1,1.1c0,0,0,0,0,0h14.6c0.6,0,1.1-0.5,1.1-1.1c0-0.6-0.5-1.1-1.1-1.1h-14.6
	C320.5,227.1,320,227.6,320,228.2z"/>
<path class="st3" d="M320,232.3c0,0.6,0.5,1.1,1.1,1.1c0,0,0,0,0,0h14.6c0.6,0,1.1-0.5,1.1-1.1c0-0.6-0.5-1.1-1.1-1.1h-14.6
	C320.5,231.2,320,231.7,320,232.3z"/>
<path class="st3" d="M320,236.5c0,0.6,0.5,1.1,1.1,1.1h14.6c0.6,0,1.1-0.5,1.1-1.1c0-0.6-0.5-1.1-1.1-1.1h-14.6
	C320.5,235.4,320,235.9,320,236.5C320,236.5,320,236.5,320,236.5z"/>
<path class="st1" d="M319.2,268.5h5.2c1.6,0,2.9,1.3,2.9,2.9v0c0,1.6-1.3,2.9-2.9,2.9h-5.2c-1.6,0-2.9-1.3-2.9-2.9v0
	C316.4,269.8,317.7,268.5,319.2,268.5z"/>
<path class="st1" d="M379.2,268.5h5.2c1.6,0,2.9,1.3,2.9,2.9v0c0,1.6-1.3,2.9-2.9,2.9h-5.2c-1.6,0-2.9-1.3-2.9-2.9v0
	C376.4,269.8,377.7,268.5,379.2,268.5z"/>
<path class="st1" d="M396.2,268.5h5.2c1.6,0,2.9,1.3,2.9,2.9v0c0,1.6-1.3,2.9-2.9,2.9h-5.2c-1.6,0-2.9-1.3-2.9-2.9v0
	C393.4,269.8,394.7,268.5,396.2,268.5z"/>
<path class="st1" d="M335.6,268.1h32.6c1.6,0,2.9,1.3,2.9,2.9v0c0,1.6-1.3,2.9-2.9,2.9h-32.6c-1.6,0-2.9-1.3-2.9-2.9v0
	C332.7,269.4,334,268.1,335.6,268.1z"/>
<path class="st1" d="M415.6,268.1h32.6c1.6,0,2.9,1.3,2.9,2.9v0c0,1.6-1.3,2.9-2.9,2.9h-32.6c-1.6,0-2.9-1.3-2.9-2.9v0
	C412.7,269.4,414,268.1,415.6,268.1z"/>
<path class="st1" d="M335.2,281.5h5.2c1.6,0,2.9,1.3,2.9,2.9v0c0,1.6-1.3,2.9-2.9,2.9h-5.2c-1.6,0-2.9-1.3-2.9-2.9v0
	C332.4,282.8,333.7,281.5,335.2,281.5z"/>
<path class="st1" d="M395.2,281.5h5.2c1.6,0,2.9,1.3,2.9,2.9v0c0,1.6-1.3,2.9-2.9,2.9h-5.2c-1.6,0-2.9-1.3-2.9-2.9v0
	C392.4,282.8,393.7,281.5,395.2,281.5z"/>
<path class="st1" d="M412.2,281.5h5.2c1.6,0,2.9,1.3,2.9,2.9v0c0,1.6-1.3,2.9-2.9,2.9h-5.2c-1.6,0-2.9-1.3-2.9-2.9v0
	C409.4,282.8,410.7,281.5,412.2,281.5z"/>
<path class="st1" d="M351.6,281.1h32.6c1.6,0,2.9,1.3,2.9,2.9v0c0,1.6-1.3,2.9-2.9,2.9h-32.6c-1.6,0-2.9-1.3-2.9-2.9v0
	C348.7,282.4,350,281.1,351.6,281.1z"/>
<path class="st1" d="M431.6,281.1h32.6c1.6,0,2.9,1.3,2.9,2.9v0c0,1.6-1.3,2.9-2.9,2.9h-32.6c-1.6,0-2.9-1.3-2.9-2.9v0
	C428.7,282.4,430,281.1,431.6,281.1z"/>
<path class="st1" d="M351.2,294.5h5.2c1.6,0,2.9,1.3,2.9,2.9v0c0,1.6-1.3,2.9-2.9,2.9h-5.2c-1.6,0-2.9-1.3-2.9-2.9v0
	C348.4,295.8,349.7,294.5,351.2,294.5z"/>
<path class="st1" d="M411.2,294.5h5.2c1.6,0,2.9,1.3,2.9,2.9v0c0,1.6-1.3,2.9-2.9,2.9h-5.2c-1.6,0-2.9-1.3-2.9-2.9v0
	C408.4,295.8,409.7,294.5,411.2,294.5z"/>
<path class="st1" d="M428.2,294.5h5.2c1.6,0,2.9,1.3,2.9,2.9v0c0,1.6-1.3,2.9-2.9,2.9h-5.2c-1.6,0-2.9-1.3-2.9-2.9v0
	C425.4,295.8,426.7,294.5,428.2,294.5z"/>
<path class="st1" d="M367.6,294.1h32.6c1.6,0,2.9,1.3,2.9,2.9v0c0,1.6-1.3,2.9-2.9,2.9h-32.6c-1.6,0-2.9-1.3-2.9-2.9v0
	C364.7,295.4,366,294.1,367.6,294.1z"/>
<path class="st1" d="M447.6,294.1h32.6c1.6,0,2.9,1.3,2.9,2.9v0c0,1.6-1.3,2.9-2.9,2.9h-32.6c-1.6,0-2.9-1.3-2.9-2.9v0
	C444.7,295.4,446,294.1,447.6,294.1z"/>
<path class="st1" d="M367.2,307.5h5.2c1.6,0,2.9,1.3,2.9,2.9v0c0,1.6-1.3,2.9-2.9,2.9h-5.2c-1.6,0-2.9-1.3-2.9-2.9v0
	C364.4,308.8,365.7,307.5,367.2,307.5z"/>
<path class="st1" d="M427.2,307.5h5.2c1.6,0,2.9,1.3,2.9,2.9v0c0,1.6-1.3,2.9-2.9,2.9h-5.2c-1.6,0-2.9-1.3-2.9-2.9v0
	C424.4,308.8,425.7,307.5,427.2,307.5z"/>
<path class="st1" d="M444.2,307.5h5.2c1.6,0,2.9,1.3,2.9,2.9v0c0,1.6-1.3,2.9-2.9,2.9h-5.2c-1.6,0-2.9-1.3-2.9-2.9v0
	C441.4,308.8,442.7,307.5,444.2,307.5z"/>
<path class="st1" d="M383.6,307.1h32.6c1.6,0,2.9,1.3,2.9,2.9v0c0,1.6-1.3,2.9-2.9,2.9h-32.6c-1.6,0-2.9-1.3-2.9-2.9v0
	C380.7,308.4,382,307.1,383.6,307.1z"/>
<path class="st1" d="M379.2,359.2h5.2c1.6,0,2.9,1.3,2.9,2.9v0c0,1.6-1.3,2.9-2.9,2.9h-5.2c-1.6,0-2.9-1.3-2.9-2.9v0
	C376.4,360.5,377.7,359.2,379.2,359.2z"/>
<path class="st1" d="M396.2,359.2h5.2c1.6,0,2.9,1.3,2.9,2.9v0c0,1.6-1.3,2.9-2.9,2.9h-5.2c-1.6,0-2.9-1.3-2.9-2.9v0
	C393.4,360.5,394.7,359.2,396.2,359.2z"/>
<path class="st1" d="M415.6,359.7h32.6c1.6,0,2.9,1.3,2.9,2.9v0c0,1.6-1.3,2.9-2.9,2.9h-32.6c-1.6,0-2.9-1.3-2.9-2.9v0
	C412.7,361,414,359.7,415.6,359.7z"/>
<path class="st1" d="M319.2,359.2h5.2c1.6,0,2.9,1.3,2.9,2.9v0c0,1.6-1.3,2.9-2.9,2.9h-5.2c-1.6,0-2.9-1.3-2.9-2.9v0
	C316.4,360.5,317.7,359.2,319.2,359.2z"/>
<path class="st1" d="M335.6,359.7h32.6c1.6,0,2.9,1.3,2.9,2.9v0c0,1.6-1.3,2.9-2.9,2.9h-32.6c-1.6,0-2.9-1.3-2.9-2.9v0
	C332.7,361,334,359.7,335.6,359.7z"/>
<path class="st1" d="M335.2,346.2h5.2c1.6,0,2.9,1.3,2.9,2.9v0c0,1.6-1.3,2.9-2.9,2.9h-5.2c-1.6,0-2.9-1.3-2.9-2.9v0
	C332.4,347.5,333.7,346.2,335.2,346.2z"/>
<path class="st1" d="M395.2,346.2h5.2c1.6,0,2.9,1.3,2.9,2.9v0c0,1.6-1.3,2.9-2.9,2.9h-5.2c-1.6,0-2.9-1.3-2.9-2.9v0
	C392.4,347.5,393.7,346.2,395.2,346.2z"/>
<path class="st1" d="M412.2,346.2h5.2c1.6,0,2.9,1.3,2.9,2.9v0c0,1.6-1.3,2.9-2.9,2.9h-5.2c-1.6,0-2.9-1.3-2.9-2.9v0
	C409.4,347.5,410.7,346.2,412.2,346.2z"/>
<path class="st1" d="M351.6,346.7h32.6c1.6,0,2.9,1.3,2.9,2.9v0c0,1.6-1.3,2.9-2.9,2.9h-32.6c-1.6,0-2.9-1.3-2.9-2.9v0
	C348.7,348,350,346.7,351.6,346.7z"/>
<path class="st1" d="M351.2,333.2h5.2c1.6,0,2.9,1.3,2.9,2.9v0c0,1.6-1.3,2.9-2.9,2.9h-5.2c-1.6,0-2.9-1.3-2.9-2.9v0
	C348.4,334.5,349.7,333.2,351.2,333.2z"/>
<path class="st1" d="M411.2,333.2h5.2c1.6,0,2.9,1.3,2.9,2.9v0c0,1.6-1.3,2.9-2.9,2.9h-5.2c-1.6,0-2.9-1.3-2.9-2.9v0
	C408.4,334.5,409.7,333.2,411.2,333.2z"/>
<path class="st1" d="M428.2,333.2h5.2c1.6,0,2.9,1.3,2.9,2.9v0c0,1.6-1.3,2.9-2.9,2.9h-5.2c-1.6,0-2.9-1.3-2.9-2.9v0
	C425.4,334.5,426.7,333.2,428.2,333.2z"/>
<path class="st1" d="M367.6,333.7h32.6c1.6,0,2.9,1.3,2.9,2.9v0c0,1.6-1.3,2.9-2.9,2.9h-32.6c-1.6,0-2.9-1.3-2.9-2.9v0
	C364.7,335,366,333.7,367.6,333.7z"/>
<path class="st1" d="M367.2,320.2h5.2c1.6,0,2.9,1.3,2.9,2.9v0c0,1.6-1.3,2.9-2.9,2.9h-5.2c-1.6,0-2.9-1.3-2.9-2.9v0
	C364.4,321.5,365.7,320.2,367.2,320.2z"/>
<path class="st1" d="M427.2,320.2h5.2c1.6,0,2.9,1.3,2.9,2.9v0c0,1.6-1.3,2.9-2.9,2.9h-5.2c-1.6,0-2.9-1.3-2.9-2.9v0
	C424.4,321.5,425.7,320.2,427.2,320.2z"/>
<path class="st1" d="M444.2,320.2h5.2c1.6,0,2.9,1.3,2.9,2.9v0c0,1.6-1.3,2.9-2.9,2.9h-5.2c-1.6,0-2.9-1.3-2.9-2.9v0
	C441.4,321.5,442.7,320.2,444.2,320.2z"/>
<path class="st1" d="M383.6,320.7h32.6c1.6,0,2.9,1.3,2.9,2.9v0c0,1.6-1.3,2.9-2.9,2.9h-32.6c-1.6,0-2.9-1.3-2.9-2.9v0
	C380.7,322,382,320.7,383.6,320.7z"/>
<path class="st3" d="M349.9,546c-0.2,0.1-0.4,0.2-0.7,0.3c-1.4,0.7-2.8,1.4-4.2,2c-4.2,2-8.5,3.9-12.8,5.7c-11.4,4.8-23.1,8.8-35,12
	c-2-12.5-3.9-41.9-5.8-63.5c-0.3-4.1-0.7-7.9-1-11.2c-0.3-4.4-1-8.8-1.9-13.1c-0.1-0.3-0.2-0.7-0.4-1c0.2,1.7,0.4,6.9,0.6,14
	c0.1,3.3,0.2,7.1,0.3,11.2c0.5,20.8,1,49.2,1.5,65.3c-1.4,0.3-2.8,0.7-4.2,1c-0.9,0.2-1.8,0.4-2.7,0.6c-1.1,0.2-2.2,0.5-3.2,0.7
	c-1.1,0.2-2.3,0.5-3.4,0.7c-18.5,3.6-37.2,5.4-56.1,5.4c-1.3,0-2.5,0-3.7,0c-0.4,0-0.8,0-1.1,0c-1.1,0-2.2,0-3.4-0.1
	c-22.2-0.6-44.3-3.8-65.8-9.5l0.9-64.1l0.1-11.2l0.1-4.3c-0.5,1.4-0.8,2.8-0.9,4.3c-0.4,2.7-0.7,6.6-1.1,11.2
	c-1.4,17.8-2.8,46.4-4.2,62.7c-17.3-4.9-29.9-9.4-45.7-17.3c-0.6-0.3-1.2-0.6-1.8-0.9c0.1-0.8,0.2-1.5,0.3-2.3
	c1.8-12.4-0.3-28.6,1.7-42.2c1.5-10.4,3.1-20.5,4.6-29c1.9-10.2,3.8-18.3,5.7-22.2c2.2-4.5,4.4-9,6.5-13.2c0.9-1.8,1.8-3.6,2.7-5.4
	c0.5-1,1-1.9,1.4-2.8c2.1-4.2,4.2-8.1,6-11.5c1.3-2.4,2.5-4.6,3.6-6.5c1.3-2.3,2.4-4.1,3.4-5.5c6.9-10.5,17.3-18.4,29.3-22.2
	l0.3-0.1l0.3,0.1l0.3,0.2l19.1-7l8.5-20.5l43.7-2.7l7.1,5.4l3.6,2.8l3.9,2.9l7.1,5.4l2,0.6l3,0.9l20.5,6.3l0.2-0.1l0.3,0.1
	c10.9,3.5,20.5,10.3,27.4,19.5c0.7,0.9,1.3,1.8,1.9,2.7c1.7,2.5,3.9,6.3,6.5,11.2c1.1,2,2.2,4.2,3.5,6.5c0.7,1.4,7,21,13.2,41.1
	c5.7,18.8,11.3,38,12,42.9c0.1,0.9,0.3,1.8,0.4,2.7c0.8,5.7,1.7,11.4,2.4,17c1.2,8.3,2.3,16.3,3.4,23.4
	C349.9,545.8,349.9,545.9,349.9,546z"/>
<polygon class="st6" points="303.6,473.6 295.1,440.8 287.6,469.1 "/>
<path class="st4" d="M15.8,473.2c0.9,2.6,3.4,4.4,6.2,4.3l26.5-0.7c2.8-0.1,5.2-2,6-4.7l3.7-40.1c1.3,0.6,2.8,0.9,4.2,0.9
	c5.3-0.1,9.5-4.6,9.4-9.9c-0.1-5.3-4.6-9.5-9.9-9.4l0,0c-0.6,0-1.2,0.1-1.7,0.2c-1.3-1.4-3-2.1-4.9-2.1l-40.8,1.1
	c-0.3,0-0.7,0.1-1,0.1c-3.5,0.6-5.7,4-5.1,7.4c0.1,0.3,0.1,0.6,0.2,0.8L15.8,473.2z M59,429.4l2.7-9.6c0.3-1.1,0.3-2.3,0-3.4
	c0.1,0,0.2-0.1,0.4-0.1c3.8-0.1,7,3,7.1,6.8c0.1,3.8-2.9,7-6.7,7.1C61.2,430.2,60,429.9,59,429.4L59,429.4z"/>
<path class="st3" d="M13.6,412.9c0.9,5,10.6,8.5,22.4,7.8c10.8-0.5,19.6-4.3,21.2-8.8c-0.6-0.2-1.2-0.3-1.8-0.2l-40.8,1.1
	C14.3,412.8,14,412.8,13.6,412.9z"/>
<path class="st5" d="M38.1,451.2c0.1,0,0.1,0,0.2-0.1l5.8-3.8c0.2-0.2,0.3-0.5,0.1-0.7c0-0.1-0.1-0.1-0.1-0.1l-6-3.9
	c-0.2-0.2-0.5-0.1-0.7,0.1s-0.1,0.5,0.1,0.7l0,0l5.3,3.5l-5.1,3.3c-0.2,0.2-0.3,0.5-0.1,0.7C37.7,451.1,37.9,451.2,38.1,451.2
	L38.1,451.2z"/>
<path class="st5" d="M27.4,449.4c0.2-0.1,0.3-0.3,0.3-0.5c0-0.1-0.1-0.2-0.2-0.2l-3.9-2.3l3.8-2.8c0.2-0.1,0.2-0.4,0.1-0.5
	c-0.1-0.2-0.4-0.2-0.5-0.1c0,0,0,0,0,0l-4.3,3.2c-0.2,0.1-0.2,0.4-0.1,0.5c0,0,0.1,0.1,0.1,0.1l4.4,2.5
	C27.2,449.4,27.3,449.4,27.4,449.4z"/>
<path class="st5" d="M37.6,454.5c0,0,0.1,0,0.1-0.1c0.2-0.1,0.3-0.5,0.2-0.7c0,0,0,0,0,0l-8.2-13.4c-0.1-0.2-0.5-0.3-0.7-0.2
	c-0.2,0.1-0.3,0.4-0.2,0.7l8.2,13.4C37.1,454.4,37.4,454.5,37.6,454.5z"/>
<path class="st3" d="M785.1,547c-0.6,0.3-1.2,0.6-1.8,0.9c-15.8,7.9-28.4,12.4-45.7,17.3c-1.5-16.3-2.9-45-4.2-62.7
	c-0.4-4.6-0.7-8.5-1.1-11.2c-0.1-1.5-0.4-2.9-0.9-4.3l0.1,4.3l0.2,11.2l0.9,64.1c-21.5,5.7-43.6,8.9-65.8,9.5c-1.2,0-2.3,0-3.4,0.1
	c-0.4,0-0.8,0-1.2,0c-1.3,0-2.5,0-3.7,0c-23.4,0-46.8-2.8-69.5-8.4c0.5-16.1,1-44.5,1.4-65.3c0.1-4.1,0.2-7.9,0.3-11.2
	c0.2-7.2,0.4-12.3,0.6-14c-0.2,0.3-0.3,0.6-0.4,1c-0.9,4.3-1.6,8.7-1.9,13.1c-0.3,3.3-0.7,7.1-1,11.2c-1.9,21.6-3.8,51-5.8,63.5
	c-11.9-3.3-23.6-7.3-35-12c-6-2.5-11.9-5.2-17.7-8.1c1.1-7.2,2.3-15.3,3.4-23.6c0.9-6.5,1.9-13.2,2.8-19.8
	c1.5-10.2,52.5-120.1,64.5-124l0.3-0.1l0.2,0.1l20.5-6.3l3-0.9l2-0.6l7.1-5.4l3.8-2.9l3.6-2.8l7.1-5.4l43.7,2.7l8.5,20.5l19.1,7
	l0.3-0.2l0.3-0.1l0.3,0.1c12,3.8,22.3,11.7,29.3,22.2c0.9,1.4,2.1,3.3,3.4,5.5c1.1,1.9,2.3,4.1,3.6,6.5c1.8,3.4,3.9,7.3,6,11.5
	c0.5,0.9,1,1.9,1.4,2.8c0.9,1.8,1.8,3.6,2.7,5.4c2.1,4.3,4.3,8.7,6.5,13.2c1.9,3.9,3.8,12,5.7,22.2c1.6,8.5,3.1,18.5,4.6,29
	c2,13.5-0.1,29.7,1.7,42.2C784.9,545.5,785,546.3,785.1,547z"/>
<circle class="st7" cx="657" cy="296.2" r="50.8"/>
<polygon class="st6" points="575.7,473.6 584.2,440.8 591.7,469.1 "/>
<path class="st4" d="M801.8,452.2c-3,41.9,0.1,60.3-16.7,94.8c-15.3,7.5-31.2,13.6-47.5,18.2c-1.7,0.5-3.4,0.9-5.1,1.4
	c-21.5,5.7-43.6,8.9-65.8,9.5c-1.2,0-2.3,0-3.4,0.1c-0.4,0-0.8,0-1.2,0c-1.3,0-2.5,0-3.7,0c-23.4,0-46.8-2.8-69.5-8.4
	c-2.3-0.6-4.5-1.2-6.8-1.8c-11.9-3.3-23.6-7.3-35-12c-6-2.5-11.9-5.2-17.7-8.1c-1.3-0.7-2.6-1.3-3.9-2
	c-6.6-11.7-10.4-25.8-10.5-42.9C519.5,471.7,791.6,426.9,801.8,452.2z"/>
<path class="st6" d="M801.8,459.4c0.2-2.6,0.3-5.3,0.5-8.1c-10.1-25.3-282.2,19.5-286.8,48.9c0,2.7,0.1,5.3,0.3,7.9
	C526.9,479.1,785.4,436.5,801.8,459.4z"/>
<path class="st7" d="M508.2,454.2l22.3-11.2l-18.6-50.3l-4.9-25.3c-2-10.4-12.1-17.2-22.5-15.2c-3.3,0.6-6.3,2.1-8.8,4.3l0,0
	c-7.8,6.7-8.9,18.5-2.5,26.5l18.2,22.8L508.2,454.2z"/>
<path class="st3" d="M530.5,433.7l-29.8,14.9l22.6,70.8c3.3,10.3,11.8,18.2,22.3,20.7l0,0c13.1,3.1,26.8-2.6,33.7-14.2l59.9-102.7
	c8.8-14.7,4.3-33.8-10.2-43l0,0c-14.8-9.3-34.3-5-43.6,9.8c-0.6,1-1.2,2-1.7,3l-36.6,77.9L530.5,433.7z"/>
<circle class="st8" cx="209.5" cy="287.6" r="55.9"/>
<path class="st4" d="M154.2,249c4.5-6.1,11.1-10.5,16.1-16.3c2.7-3.2,5-6.7,8.1-9.6c5.7-5.3,13.7-7.4,21.5-7.7
	c17.3-0.4,33.7,7.4,44.3,21c4.1-2.4,8.1-4.8,12.2-7.1c1.6,4.2,3.2,8.5,4.8,12.7c3.1-2.7,7.7-2.4,10.4,0.7c2.1,2.4,2.4,5.8,0.8,8.5
	c1-3,5.4-3.6,7.8-1.6c2.4,2,3.1,5.5,2.7,8.6c-1,7-6.2,12.7-13.1,14.3c-5.3,1.2-11.5-0.1-15.7,3.3c-3.4,2.7-4.4,7.7-7.9,10.3
	c-4.3,3.2-10.3,1.7-15.6,2.5c-9.3,1.3-16.7,10.8-15.6,20.1c-0.8-2.9-1.7-6-3.6-8.4c-1.9-2.4-5.1-4-8.1-3.1c-4.8,1.5-5.6,8.1-4.5,13
	c3.1,13,14.9,34.1,14.9,34.1c-15.3,6-33.6,0.3-45.4-11.1c-11.8-11.5-18-27.7-20.7-44C145.6,275.5,145.9,260.2,154.2,249z"/>
<path class="st4" d="M720.7,324.2c10.6-24.4,4.6-46.8-8.4-58.8v0c-5.1-11.4-11.9-20.3-19.6-22.3c-3.8-2.4-7.4-5.2-11.4-6.7
	c-3.8-1.4-8-1.2-11.7,0.5l-2.1-0.5c-1.8-4.5-3.8-4.6-6.1-1.6c-8.8-4.1-16.7-5.9-23.7-5.9c-23,0-36.5,19.4-40.1,42.9l19.2,5.1
	l6.7-10.6l-3.1,11.6l10.6,2.8c16.1,21-3.2,69.4-27.6,96.4c5.8-1.6,11.6-3,17.4-4.1l21-30.8l-13,28c6.8-1,15.4,0,24.8,1.9
	c3.2-4.1,4.8-9.7,3.2-14.6c2.7,5.2,4.5,10.8,5.5,16.5c19.9,4.8,47,7.3,61.5,9.2C735.5,379.3,735.5,335.8,720.7,324.2z"/>
<path class="st4" d="M727.6,241.2c7.8,17.5-7.9,25-22.3,24.7c-13-0.2-24.1-9.3-24.7-22.3c-0.7-13,9.3-24.1,22.3-24.7l0,0
	C715.8,218.2,722.3,229.3,727.6,241.2z"/>
<path class="st8" d="M366,525.3l-12.8-21.4l42.7-32.4l17.8-18.7c7.3-7.7,19.4-8,27.1-0.7c2.4,2.3,4.2,5.2,5.2,8.3l0,0
	c3,9.9-2.4,20.4-12.1,23.7l-27.6,9.4L366,525.3z"/>
<path class="st3" d="M375.3,524.6l-20,16.7l-5.4,4.5l-0.6,0.5c-1.4,0.7-2.8,1.4-4.2,2c-4.2,2-8.5,3.9-12.8,5.7
	c-11.4,4.8-23.1,8.8-35,12c-2.3,0.6-4.5,1.2-6.8,1.8c-1.4,0.3-2.8,0.7-4.2,1c-0.9,0.2-1.8,0.4-2.7,0.6c-1.1,0.2-2.2,0.5-3.2,0.7
	c-1.1,0.2-2.3,0.5-3.4,0.7c-6.1-5.8-9.6-14-9.6-22.4c0-0.3,0-0.5,0-0.8l3.2-82.3l1.4-36.5c0.5-17.2,14.5-30.8,31.7-30.8
	c1,0,1.9,0,2.9,0.1c0.7,0.9,1.3,1.8,1.9,2.7c1.7,2.5,3.9,6.3,6.5,11.2c1.1,2,2.2,4.2,3.5,6.5c0.7,1.4,7,21,13.2,41.1l-2.7,21
	l-4.9,37.8l20-13.1l14.1-9.3l1.7,2.8l4.3,7.3l8.4,14L375.3,524.6z"/>
<path class="st4" d="M364.3,501.1c0,1.7,0,3.4-0.1,5c-0.2,4.6-0.7,9.1-1.6,13.6c-1.4,7.5-3.8,14.8-7.3,21.6c-0.5,0.9-1,1.8-1.5,2.7
	c-1.3,0.7-2.6,1.3-3.9,2c-0.2,0.1-0.4,0.2-0.7,0.3c-5.6,2.8-11.2,5.4-17,7.8c-11.4,4.8-23.1,8.8-35,12c-2.3,0.6-4.5,1.2-6.8,1.8
	c-4.4,1.1-8.9,2.1-13.5,3c-18.5,3.6-37.2,5.4-56.1,5.4c-1.3,0-2.5,0-3.7,0c-0.4,0-0.8,0-1.1,0c-1.1,0-2.2,0-3.4-0.1
	c-22.2-0.6-44.3-3.8-65.8-9.5c-1.7-0.5-3.4-0.9-5.1-1.4c-16.3-4.6-32.3-10.7-47.5-18.2c-16.8-34.5-13.6-53-16.7-94.8
	c6.2-15.6,111.8-4.6,193.1,13c22.1,4.8,42.3,10,58.3,15.4c16.5,5.5,28.5,11.2,33.2,16.4C363.2,498.2,364,499.6,364.3,501.1z"/>
<path class="st6" d="M77.5,459.4c-0.2-2.6-0.3-5.3-0.5-8.1c10.1-25.3,282.2,19.5,286.8,48.9c0,2.7-0.1,5.3-0.3,7.9
	C352.3,479.1,93.9,436.5,77.5,459.4z"/>
</svg>
